<svg class="heart-loader" xmlns:rdf="http://www.w3.org/1999/02/22-rdf-syntax-ns#" xmlns:svg="http://www.w3.org/2000/svg" xmlns="http://www.w3.org/2000/svg" xmlns:xlink="http://www.w3.org/1999/xlink" viewBox="0 0 90 90" version="1.1">
  <g class="he<?xml version="1.0" encoding="utf-8"?>
<!-- Generator: Adobe Illustrator 27.5.0, SVG Export Plug-In . SVG Version: 6.00 Build 0)  -->
<svg version="1.1" id="Layer_1" xmlns="http://www.w3.org/2000/svg" xmlns:xlink="http://www.w3.org/1999/xlink" x="0px" y="0px"
	 viewBox="0 0 359.591 289.818" style="enable-background:new 0 0 359.591 289.818;" xml:space="preserve">
<g>
	<g>
		<path style="fill:#97999C;" d="M75.39,178.395c-3.796-3.394-4.083-7.534-2.553-12.168c7.162-21.69,24.099-39.624,41.787-53.352
			c0.053-0.066,0.106-0.134,0.161-0.204c0.079-0.101,0.206-0.116,0.33-0.101c-0.326,0.758-0.737,1.572-0.354,2.217
			c0.614,1.028,1.911,1.646,2.897,2.247c3.607,2.197,6.424,5.976,8.747,9.442c2.664,3.98,4.874,8.243,7.114,12.472
			c1.576,2.974,3.035,6.005,3.975,9.219c-0.02,1.314-0.139,2.633-0.394,3.944c-0.008,0.043-0.028,0.079-0.057,0.105
			c1.792,1.271,3.549,2.594,5.275,3.968c6.708,5.35,13.516,11.69,17.575,19.381c1.543,2.921,2.417,5.184,1.447,8.475
			c-1.124,3.817-3.705,7.526-5.752,10.9c-4.701,7.741-10.549,14.146-17.471,19.959c-0.039,0.032-0.1,0.044-0.167,0.046
			c-2.397,2.431-5.266,4.73-8.621,5.428c-4.213,0.875-8.932,0.121-13.032-1.002c-2.95-0.81-7.79-0.979-9.962-3.438
			c-1.886-2.135,3.424-3.356,5.514-3.764c-3.119-1.713-7.564-4.023-8.816-7.471c-1.374-3.781,3.834-3.33,6.03-2.927
			c0.704,0.129,1.404,0.282,2.1,0.453c-1.437-2.049-2.655-5.127-0.6-5.728c1.892-0.552,4.074,0.318,5.797,1.084
			c2.22,0.986,4.596,2.235,6.335,3.993c-0.062-0.657-0.119-1.316-0.166-1.978c-0.1-1.395-0.376-2.908-0.378-4.361
			c-11.72-2.537-23.69-5.318-34.834-9.795C83.03,183.718,78.85,181.489,75.39,178.395z"/>
		<path style="fill:#F8F8F9;" d="M122.73,202.443c-0.062-0.012-0.122-0.026-0.184-0.04c-0.221-0.049-0.339-0.199-0.33-0.326
			c-2.292-2.298-5.876-4.077-8.974-4.808c-4-0.942-2.097,3.006-0.734,5.319c1.627,0.453,3.238,0.97,4.83,1.481
			c1.639,0.528,3.275,1.074,4.896,1.658c0.25,0.089,0.585,0.166,0.925,0.265c-0.133-1.186-0.264-2.362-0.38-3.544
			C122.762,202.449,122.746,202.447,122.73,202.443z"/>
		<path style="fill:#DADBDD;" d="M122.73,202.443c-0.062-0.012-0.122-0.026-0.184-0.04c-0.221-0.049-0.339-0.199-0.33-0.326
			c-2.292-2.298-5.876-4.077-8.974-4.808c-4-0.942-2.097,3.006-0.734,5.319c1.627,0.453,3.238,0.97,4.83,1.481
			c1.639,0.528,3.275,1.074,4.896,1.658c0.25,0.089,0.585,0.166,0.925,0.265c-0.133-1.186-0.264-2.362-0.38-3.544
			C122.762,202.449,122.746,202.447,122.73,202.443z"/>
		<path style="fill:#F8F8F9;" d="M122.173,194.607c0.014-0.237,0.039-0.468,0.073-0.697c0.571,3.295,1.288,6.566,1.557,9.906
			c0.007,0.101,0.059,0.159,0.123,0.191c0.066,0.786,0.105,1.565,0.079,2.325c0.108,0.063,0.202,0.138,0.284,0.22
			c-0.413-0.029-0.828-0.054-1.242-0.07c-1.216-0.554-3.275-0.812-4.226-1.118c-1.117-0.356-2.237-0.706-3.361-1.044
			c-0.029-0.083-0.094-0.155-0.204-0.172c-1.43-0.252-2.813-0.756-4.227-1.088c-1.403-0.356-2.806-0.655-4.26-0.796
			c-4.129-0.399-2.522,2.775-1.206,4.297c2.417,2.799,6.156,4.547,9.331,6.326c1.745,0.98,3.439,1.798,5.163,2.487
			c1.664,0.957,3.399,1.773,5.212,2.398c-4.498-0.557-8.503-2.848-12.455-5.065c-0.617,0.14-1.239,0.271-1.856,0.416
			c-0.686,0.058-1.367,0.163-2.015,0.358c-0.735,0.218-2.392,0.834-2.196,1.919c0.228,1.255,1.835,1.546,2.889,1.798
			c0.69,0.163,1.396,0.282,2.108,0.385c2.394,0.671,4.837,1.275,7.258,1.809c3.321,0.73,7.424,1.116,10.696,0.099
			c3.474-1.078,6.392-3.678,8.924-6.148c0.008-0.009,0.023-0.013,0.034-0.021c2.456-2.451,5.01-4.809,7.381-7.349
			c2.797-2.997,5.097-6.339,7.259-9.809c2.073-3.328,4.009-6.736,5.809-10.223c2.095-4.061,1.208-7.089-0.819-10.924
			c-3.887-7.358-10.673-13.282-16.989-18.488c-6.48-5.345-13.617-9.839-20.929-13.944c-0.418-0.232,0.172-0.428,0.436-0.288
			c2.226,1.169,4.416,2.394,6.573,3.668c-0.892-2.949-2.062-5.571-3.958-8.082c-0.199-0.267,0.455-0.263,0.604-0.071
			c2.052,2.618,3.575,5.45,4.276,8.701c2.706,1.625,5.356,3.334,7.941,5.144c-0.015-1.006,0.148-2.001,0.201-3.014
			c0.112-2.122-0.255-4.137-0.733-6.189c-0.916-3.916-2.343-7.546-4.41-11.003c-2.259-3.779-4.947-7.349-7.805-10.689
			c-1.306-1.525-2.681-2.979-4.115-4.384c-0.654-0.64-1.337-1.24-2.035-1.832c0.265,0.226-1.805-1.147-1.993-1.47
			c0.132,0.226-0.158,0.26-0.38,0.214c-16.653,13.737-31.086,29.684-39.654,49.719c-2.168,5.067-3.743,10.012,0.417,14.526
			c3.569,3.873,9.022,6.15,13.818,8.011C100.081,189.625,111.259,191.832,122.173,194.607z"/>
		<path style="fill:#DADBDD;" d="M136.24,151.658c-2.585-1.81-5.235-3.519-7.941-5.144c-0.701-3.251-2.224-6.083-4.276-8.701
			c-0.12-0.154-0.55-0.183-0.624-0.056c-0.472-0.716-0.956-1.427-1.415-2.146c4.698,2.315,7.867,6.963,10.609,11.265
			c0.135,0.213,0.44,0.072,0.477-0.134c0.942-5.5-0.665-11.201-2.875-16.208c-0.442-1.002-0.92-1.987-1.415-2.967
			c0.883,1.271,1.728,2.565,2.518,3.886c2.067,3.457,3.494,7.087,4.41,11.003c0.478,2.052,0.845,4.066,0.733,6.189
			C136.388,149.657,136.225,150.652,136.24,151.658z"/>
		<path style="fill:#DADBDD;" d="M122.173,194.607c0.014-0.237,0.039-0.468,0.073-0.697c0.571,3.295,1.288,6.566,1.557,9.906
			c0.007,0.101,0.059,0.159,0.123,0.191c0.066,0.786,0.105,1.565,0.079,2.325c0.108,0.063,0.202,0.138,0.284,0.22
			c-0.413-0.029-0.828-0.054-1.242-0.07c-1.216-0.554-3.275-0.812-4.226-1.118c-1.117-0.356-2.237-0.706-3.361-1.044
			c-0.029-0.083-0.094-0.155-0.204-0.172c-1.43-0.252-2.813-0.756-4.227-1.088c-1.403-0.356-2.806-0.655-4.26-0.796
			c-4.129-0.399-2.522,2.775-1.206,4.297c2.417,2.799,6.156,4.547,9.331,6.326c1.745,0.98,3.439,1.798,5.163,2.487
			c1.664,0.957,3.399,1.773,5.212,2.398c-4.498-0.557-8.503-2.848-12.455-5.065c-0.617,0.14-1.239,0.271-1.856,0.416
			c-0.686,0.058-1.367,0.163-2.015,0.358c-0.735,0.218-2.392,0.834-2.196,1.919c0.228,1.255,1.835,1.546,2.889,1.798
			c0.69,0.163,1.396,0.282,2.108,0.385c2.394,0.671,4.837,1.275,7.258,1.809c3.321,0.73,7.424,1.116,10.696,0.099
			c3.474-1.078,6.392-3.678,8.924-6.148c0.008-0.009,0.023-0.013,0.034-0.021c2.456-2.451,5.01-4.809,7.381-7.349
			c2.797-2.997,5.097-6.339,7.259-9.809c2.073-3.328,4.009-6.736,5.809-10.223c1.931-3.741,1.325-6.609-0.369-10.039
			c-0.016,0.919-0.256,1.785-0.856,2.518c-0.087,0.104-0.259,0.156-0.374,0.059c-2.215-1.886-3.777-4.363-6.046-6.209
			c-1.976-1.606-4.173-2.923-6.357-4.24c2.475,2.473,5.517,4.526,6.774,7.906c0.046,0.125,0.001,0.305-0.142,0.35
			c-2.734,0.858-5.764-1.139-7.993-2.503c-1.078-0.659-2.157-1.314-3.229-1.985c0.65,0.661,1.277,1.338,1.856,2.041
			c0.306,0.369,1.105,1.347,0.554,1.833c-0.806,0.713-2.698-0.155-3.535-0.388c-6.189-1.729-12.129-4.92-17.378-8.844
			c4.464,5.067,10.404,8.665,15.647,12.903c0.197,0.157,0.09,0.528-0.189,0.481c-5.485-0.949-10.386-3.382-15.31-5.871
			c-3.069-1.552-6.137-3.179-9.126-4.93c2.314,1.612,4.485,3.37,5.889,5.879c0.107,0.191-0.098,0.375-0.277,0.371
			c-5.299-0.153-10.307-2.979-14.795-5.547c-4.361-2.499-7.972-6.254-10.402-10.648c0.995,2.586,2.39,5.085,3.153,7.722
			c0.069,0.247-0.171,0.481-0.407,0.322c-12.564-8.61-7.348-23.793-0.239-35.803c-8.433,9.388-15.564,19.82-20.64,31.686
			c-2.168,5.067-3.743,10.012,0.417,14.526c3.569,3.873,9.022,6.15,13.818,8.011C100.081,189.625,111.259,191.832,122.173,194.607z
			 M145.65,186.26c-0.597-1.026-1.602-2.669-1.128-3.927c0.258-0.69,0.754-1.084,1.47-0.713c0.979,0.508,1.647,1.726,2.202,2.624
			c0.384,0.623,0.756,1.271,1.084,1.937c0.516,0.796,1.008,1.606,1.44,2.453c0.436,0.856,1.724,3.505,0.908,4.412
			C150.469,194.334,146.241,187.275,145.65,186.26z M145.74,189.064c-1.818,0.215-4.036-2.485-5.034-3.737
			c-0.576-0.72-1.058-1.592-0.823-2.529c0.169-0.677,0.87-1.086,1.522-0.985c1.186,0.186,2.221,1.608,2.888,2.823
			c0.687,0.807,1.275,1.691,1.706,2.679C146.184,187.737,146.551,188.967,145.74,189.064z M128.274,191.381
			c0.045-1.699,0.173-3.416,0.334-5.109c0.132-1.34,0.402-2.763,1.303-3.81c0.091-0.108,0.253-0.154,0.375-0.058
			c1.773,1.376,2.612,3.67,3.426,5.688c0.672,1.665,1.237,3.376,1.712,5.107c-0.016-1.26,0.01-2.521-0.053-3.787
			c-0.075-1.54-0.311-3.171,0.551-4.543c0.071-0.107,0.204-0.119,0.314-0.089c2.423,0.618,3.31,4.253,3.868,6.302
			c0.786,2.883,1.449,5.749,1.749,8.697c0.166-1.722,0.278-3.45,0.785-5.129c0.638-2.105,2.428-3.959,4.784-3.226
			c2.47,0.768,1.95,5.053,1.327,6.833c-0.492,1.395-1.319,2.63-2.252,3.797c-0.537,1.044-1.126,2.065-1.762,3.061
			c-1.873,2.939-4.22,5.926-6.953,8.122c-0.686,0.555-1.515,1.235-2.452,1.08c-0.919-0.15-0.65-1.509-0.568-2.111
			c0.337-2.502,0.868-4.963,1.507-7.397c-0.739,1.766-1.347,3.715-2.795,5.011c-0.159,0.141-0.397,0.018-0.431-0.172
			c-0.485-2.674-0.393-5.398-0.407-8.102c-0.004-0.949-0.037-1.889-0.075-2.826c-0.002,0.015-0.003,0.03-0.005,0.049
			c-0.207,1.743-0.381,3.64-1.094,5.265c-0.85,1.946-1.925-0.136-2.205-1.161C128.257,199.205,128.172,195.158,128.274,191.381z"/>
		<path style="fill:#DADBDD;" d="M89.552,185.548c-4.796-1.86-10.249-4.138-13.818-8.011c-4.16-4.515-2.585-9.459-0.417-14.526
			c0.139-0.328,0.286-0.648,0.429-0.973c-0.213,1.953-0.155,3.924,0.311,5.86c1.584,6.597,7.381,9.717,13.117,12.355
			c6.896,3.172,13.865,5.776,21.267,7.516c0.29,0.066,0.364-0.327,0.188-0.48c-3.337-2.99-7.341-5.147-10.577-8.237
			c6.332,3.34,12.571,7.269,19.643,8.762c1.053,0.222,2.116,0.409,3.189,0.506c0.541,0.047,1.082,0.091,1.624,0.106
			c0.563,0.013,0.547,0.007,0.47,0.572c-0.27,1.968-0.575,3.935-0.784,5.908c-0.427,4.026-0.428,8.025,0.656,11.955
			c0.081,0.299,0.456,0.295,0.532-0.008c0.545-2.217,0.957-4.466,1.529-6.675c0.229,4.07,1.347,7.948,2.69,11.807
			c-1.582-0.439-2.813-2.112-3.389-3.548c-0.096-0.239-0.509-0.201-0.513,0.074c-0.026,1.474,0.389,2.826,1.008,4.126
			c-1.291-0.693-2.599-1.362-3.954-1.921c-1.314-0.546-2.717-0.91-3.981-1.563c-2.082-1.076-4.145-2.652-6.57-2.753
			c-0.188-0.007-0.375,0.177-0.278,0.372c0.979,1.998,2.781,3.469,4.566,4.73c2.041,1.441,4.146,2.817,6.244,4.172
			c2.188,1.411,4.44,2.756,6.792,3.866c-3.244,0.951-7.259,0.568-10.523-0.148c-2.42-0.534-4.864-1.139-7.258-1.809
			c-0.711-0.103-1.417-0.222-2.108-0.385c-1.054-0.252-2.662-0.543-2.889-1.798c-0.196-1.085,1.461-1.701,2.196-1.919
			c0.648-0.195,1.329-0.301,2.015-0.358c0.617-0.145,1.239-0.276,1.856-0.416c3.951,2.218,7.956,4.509,12.455,5.065
			c-1.813-0.625-3.547-1.441-5.212-2.398c-1.723-0.689-3.418-1.508-5.163-2.487c-3.175-1.779-6.914-3.527-9.331-6.326
			c-1.316-1.521-2.923-4.696,1.206-4.297c1.454,0.141,2.857,0.439,4.26,0.796c1.413,0.332,2.796,0.836,4.227,1.088
			c0.11,0.017,0.174,0.089,0.204,0.172c1.124,0.338,2.244,0.688,3.361,1.044c0.951,0.307,3.01,0.564,4.226,1.118
			c0.414,0.017,0.829,0.041,1.242,0.07c-0.083-0.082-0.176-0.157-0.284-0.22c0.026-0.76-0.012-1.539-0.079-2.325
			c-0.064-0.032-0.116-0.091-0.123-0.191c-0.269-3.34-0.985-6.611-1.557-9.906c-0.034,0.23-0.059,0.46-0.073,0.697
			C111.259,191.832,100.081,189.625,89.552,185.548z"/>
		<path style="fill:#DADBDD;" d="M135.914,152.384c-2.092-1.273-4.219-2.48-6.386-3.62c-2.858-1.505-5.661-3.119-8.616-4.428
			c-1.363-0.606-2.729-1.175-4.163-1.586c-1.28-0.369-2.619-0.705-3.709-1.489c3.661-2.155,9.021-1.252,12.303,1.203
			c0.224,0.167,0.49-0.081,0.405-0.32c-0.426-1.206-1.035-2.314-1.705-3.389c1.534,2.247,2.545,4.604,3.335,7.212
			c-2.157-1.274-4.347-2.499-6.573-3.668c-0.264-0.14-0.854,0.056-0.436,0.288C125.707,145.584,130.95,148.794,135.914,152.384z"/>
		<g>
			<path style="fill:#97999C;" d="M127.878,169.751c3.814,2.743,7.618,5.261,11.954,7.141c1.04,0.453,2.026,0.811,3.132,1.106
				c0.743,0.197,3.241,0.458,2.151-1.09c-1.126-1.603-2.615-3.06-4.175-4.293c0.906,0.457,1.792,0.955,2.645,1.501
				c0.595,0.54,1.188,1.114,1.7,1.675c1.849,1.207,3.632,2.523,5.651,3.444c0.931,0.422,4.603,1.807,3.541-0.37
				c-0.232-0.474-0.57-0.907-0.892-1.324c-1.557-2.025-3.058-4.052-4.814-5.922c-1.335-1.419-2.936-2.622-4.545-3.772
				c1.871,0.937,3.632,2.098,5.248,3.44c0.732,0.679,1.441,1.395,2.118,2.16c1.528,1.726,4.04,4.156,4.421,6.559
				c0.257,1.628-2.509,0.991-3.211,0.8c-2.296-0.623-4.43-2.048-6.373-3.533c0.687,1.151,0.561,2.004-1.349,1.97
				c-2.839-0.051-6.034-1.682-8.476-2.943c-2.394-1.237-4.718-2.65-6.85-4.309C129.099,171.268,128.496,170.509,127.878,169.751z"/>
			<path style="fill:#97999C;" d="M104.153,176.689c-1.25-0.095-2.48-0.438-3.682-0.843c-0.606-0.32-1.204-0.657-1.785-1.028
				c0.095-0.028,0.205-0.036,0.313,0c2.022,0.686,4.023,1.246,6.165,1.341c0.985,0.044,2.049,0.106,3.074,0.235
				c-3.043-1.548-5.947-3.484-8.567-5.614c0.929,0.453,1.874,0.866,2.829,1.257c4.748,3.167,9.763,6.115,15.425,7.159
				c2.095,0.389,4.351-0.303,2.851-2.444c-0.501-0.716-1.217-1.322-1.879-1.891c-2.063-1.775-4.195-3.364-6.497-4.774
				c0.783,0.284,1.551,0.608,2.298,0.975c4.064,2.699,10.174,7.32,6.87,8.572c-3.28,1.243-7.246-0.601-10.266-1.83
				c-0.456-0.186-0.907-0.387-1.357-0.591c-0.035,0.004-0.063,0.011-0.104,0.013C107.941,177.23,106.049,176.839,104.153,176.689z"
				/>
			<path style="fill:#97999C;" d="M140.779,185.068c0.017,0.004,0.034,0.006,0.051,0.008c1.745,1.868,3.459,3.846,5.712,5.035
				c0.256,0.133,0.443-0.222,0.307-0.419c-1.025-1.462-1.459-3.211-2.225-4.808c0.039,0.017,0.073,0.036,0.099,0.063
				c0.801,0.826,1.361,1.985,1.884,3.005c0.2,0.386,0.438,0.79,0.629,1.206c1.204,1.546,2.712,3.805,4.444,4.702
				c0.154-1.481-0.733-3.296-1.197-4.61c-0.523-1.475-1.227-2.912-2.043-4.269c0.988,1.235,1.9,2.531,2.644,3.914
				c0.047,0.111,0.1,0.22,0.147,0.333c0.631,1.506,1.695,3.581,1.332,5.24c-0.044,0.209-0.373,0.228-0.532,0.181
				c-1.824-0.535-3.279-2.267-4.517-3.945c-0.093,0.084-0.278,0.101-0.37,0.097c-0.995-0.049-2.126-0.936-2.862-1.534
				c-0.951-0.773-1.817-1.599-2.614-2.499C141.36,186.209,141.066,185.641,140.779,185.068z"/>
			<path style="fill:#97999C;" d="M126.967,206.936c-0.188-1.324-0.416-2.931-0.129-4.332c0.062,0.041,0.105,0.095,0.112,0.153
				c0.183,1.524,0.315,3.04,0.655,4.545c0.232,1.032,0.603,2.034,1.012,3.007c0.159,0.382,0.341,0.754,0.548,1.111
				c0.468,0.864,0.764,0.737,0.886-0.383c1.282-3.451,1.945-6.857,2.564-10.465c0.387,2.279-0.125,4.971-0.587,7.119
				c-0.265,1.229-0.621,2.604-1.221,3.724c-0.159,0.293-0.351,0.782-0.592,1.212c-0.097,0.048-0.195,0.074-0.299,0.063
				c-0.801-0.101-1.318-0.595-1.7-1.231C127.736,209.97,127.195,208.517,126.967,206.936z"/>
		</g>
	</g>
	<g>
		<path style="fill:#B8BABC;" d="M287.103,153.007c2.217-2.764,4.092-5.909,5.549-9.133c1.025-2.271,2.981-5.923,1.961-8.433
			c-0.085-0.207-0.408-0.101-0.521,0.002c-1.192,1.068-1.976,2.566-2.93,3.842c-1.96,2.624-4.015,4.71-6.701,6.599
			c-1.241,0.873-2.556,1.727-3.927,2.523c0.888-1.016,1.678-2.139,2.359-3.376c2.19-3.984,3.757-9.263,1.409-13.481
			c-1.996-3.587-6.711-4.206-10.156-2.656c-2.318,1.042-5.618,3.489-4.794,6.403c0.091,0.32,0.519-0.119,0.464-0.347
			c-0.001-0.006-0.001-0.01-0.003-0.013c0.029-0.018,0.054-0.04,0.078-0.066c1.679-1.975,4.404-1.634,5.037,0.949
			c0.641,2.612-2.13,5.406-3.93,6.847c-3.153,2.523-7.464,3.326-11.376,3.683c-7.818,0.711-15.585-0.553-23.392,0.082
			c-0.055-0.145-0.199-0.193-0.399,0.032c-0.001,0.002-0.002,0.003-0.002,0.003c-0.215,0.02-0.43,0.034-0.645,0.058
			c-0.1,0.125-0.196,0.252-0.295,0.379c0,0.081,0.04,0.142,0.148,0.136c0.114-0.007,0.227-0.011,0.34-0.017
			c-0.958,1.268-1.521,2.671-2.128,4.176c-1.058,2.614-2.347,5.136-3.388,7.764c-2.163,5.466-4.591,10.821-6.662,16.327
			c-4.085,10.863-6.326,22.245-8.563,33.588c-0.173,0.877,0.768,0.318,0.935-0.171c0.029-0.087,0.057-0.176,0.087-0.263
			c2.158,0.47,4.336-0.061,6.457-0.677c2.84-0.824,5.675-1.709,8.484-2.637c6.371-2.107,12.65-4.676,18.747-7.479
			c5.642-2.59,10.961-6.436,15.821-10.249c2.464-1.933,4.875-3.956,7.153-6.104c2.163-2.04,4.67-3.92,6.394-6.359
			c0.127-0.182,0.273-0.851-0.169-0.733c-2.154,0.574-4.144,1.599-6.181,2.497c-0.357,0.157-0.716,0.301-1.073,0.449
			c7.97-5.417,15.4-12.277,20.507-20.469c0.087-0.141,0.304-0.743-0.065-0.737c-1.277,0.014-2.38,0.893-3.58,1.273
			c-2.37,0.75-4.67,1.691-7.062,2.37c-0.41,0.115-1.851,0.478-3.652,0.901c0.674-0.339,1.331-0.695,1.966-1.057
			C282.358,157.749,284.975,155.661,287.103,153.007z"/>
		<path style="fill:#FFFFFF;" d="M274.082,162.044c1.52-0.318,3.054-0.597,4.556-0.895c2.027-0.401,4.004-0.998,5.93-1.744
			c1.302-0.508,2.671-0.919,4.004-1.338c0.505-0.159,1.368-0.615,2.023-0.873c-5.072,7.744-29.285,25.322-34.109,27.478
			c-1.89,0.846-3.824,1.61-5.777,2.323c5.792-1.719,11.328-4.154,16.558-7.275c0.895-0.329,1.786-0.665,2.669-1.026
			c2.435-1,4.831-2.311,7.35-3.13c-1.433,1.635-3.258,3.031-4.802,4.522c-2.374,2.294-4.927,4.402-7.507,6.458
			c-4.862,3.873-10.104,7.197-15.59,10.111c-2.716,1.441-5.727,2.425-8.553,3.63c-2.829,1.209-5.688,2.312-8.596,3.314
			c-3.008,1.038-6.074,1.969-9.115,2.91c-2.235,0.689-4.852,1.395-7.217,1.072c-0.004-0.053-0.02-0.093-0.044-0.123
			c1.045-4.555,1.759-9.219,2.827-13.781c1.322-5.655,2.845-11.261,4.796-16.734c1.797-5.043,3.896-9.975,5.998-14.896
			c1.036-2.425,1.922-4.914,2.953-7.343c1.036-2.442,1.943-5.653,3.647-7.717c11.161-0.421,23.692,3.437,33.915-2.616
			c3.103-1.838,6.201-5.415,5.84-9.232c-0.311-3.266-4.698-3.414-6.092-0.988c0.162-2.819,4.808-4.712,7.041-4.972
			c3.46-0.403,6.461,1.963,7.474,5.145c1.096,3.446-0.633,7.544-2.176,10.577c-1.041,2.044-2.499,3.598-4.177,4.914
			c-2.2,1.084-4.505,1.961-6.855,2.503c2.328-0.295,4.608-0.76,6.837-1.438c0.082-0.063,0.168-0.12,0.247-0.184
			c1.65-0.695,3.229-1.527,4.661-2.664c2.207-1.749,4.564-3.107,6.529-5.17c0.913-0.963,1.691-2.086,2.474-3.154
			c0.664-0.904,1.293-2.069,2.07-2.938c0.144,1.212-0.555,3.311-0.928,4.287c-0.526,1.373-1.093,2.732-1.727,4.06
			c-1.393,2.924-3.33,5.816-5.422,8.285c-2.959,3.489-7.582,6.363-12.214,7.972c-1.594,0.349-3.136,0.665-4.287,0.858
			C270.893,162.224,272.491,162.163,274.082,162.044z"/>
		<path style="opacity:0.5;fill:#C2C4C6;" d="M287.103,153.007c2.217-2.764,4.092-5.909,5.549-9.133
			c0.964-2.136,2.752-5.494,2.109-7.975c-0.003,0.008-0.005,0.018-0.008,0.026c-0.768,2.348-1.855,4.549-3.093,6.685
			c-2.241,3.864-5.128,7.524-8.649,10.31c-3.612,2.857-7.849,5.278-12.34,6.417c-3.174,0.807-7.31,1.808-10.448,0.439
			c-0.33-0.146-0.264-0.584,0.026-0.72c5.984-2.801,12.671-4.248,18.02-8.293c1.232-0.932,2.353-1.949,3.39-3.031
			c-0.371,0.227-0.746,0.453-1.125,0.675c0.888-1.016,1.678-2.139,2.359-3.376c2.19-3.984,3.757-9.263,1.409-13.481
			c-1.996-3.587-6.711-4.206-10.156-2.656c-0.037,0.017-0.074,0.036-0.111,0.053c0.601-0.132,1.216-0.202,1.844-0.194
			c3.758,0.047,6.128,3.735,5.908,7.206c-0.533,8.384-8.607,15.31-16.213,17.605c-0.333,0.101-0.749-0.32-0.439-0.614
			c2.039-1.925,3.897-4.015,5.755-6.109c-2.951,1.822-6.291,3.023-9.529,4.249c-0.342,0.129-0.73-0.329-0.44-0.613
			c1.512-1.469,2.704-3.176,3.833-4.934c-1.702,0.419-3.455,0.655-5.134,0.809c-7.818,0.711-15.585-0.553-23.392,0.082
			c-0.055-0.145-0.199-0.193-0.399,0.032c-0.001,0.002-0.002,0.003-0.002,0.003c-0.215,0.02-0.43,0.034-0.645,0.058
			c-0.1,0.125-0.196,0.252-0.295,0.379c0,0.081,0.04,0.142,0.148,0.136c0.114-0.007,0.227-0.011,0.34-0.017
			c-0.958,1.268-1.521,2.671-2.128,4.176c-1.058,2.614-2.347,5.136-3.388,7.764c-2.163,5.466-4.591,10.821-6.662,16.327
			c-4.085,10.863-6.326,22.245-8.563,33.588c-0.173,0.877,0.768,0.318,0.935-0.171c0.029-0.087,0.057-0.176,0.087-0.263
			c2.158,0.47,4.336-0.061,6.457-0.677c2.84-0.824,5.675-1.709,8.484-2.637c6.371-2.107,12.65-4.676,18.747-7.479
			c5.642-2.59,10.961-6.436,15.821-10.249c0.925-0.726,1.84-1.47,2.747-2.225c-1.076,0.525-2.164,0.999-3.246,1.398
			c-3.804,1.408-7.838,1.933-11.884,1.91c-2.667-0.016-6.275,0.523-8.594-1.067c-0.23-0.155-0.165-0.591,0.11-0.663
			c3.348-0.883,6.656-1.472,9.91-2.715c3.295-1.26,6.566-2.593,9.804-3.999c3.535-1.534,7.001-3.191,10.343-5.069
			c6.789-5.04,12.995-11.159,17.441-18.29c0.064-0.103,0.194-0.449,0.117-0.627c-0.608,0.601-1.184,1.106-1.519,1.43
			c-2.777,2.687-5.713,5.294-8.918,7.453c-4.592,3.094-9.437,5.269-14.81,6.599c-4.511,1.116-9.255,1.937-13.806,0.576
			c-0.355-0.104-0.455-0.593-0.071-0.748c3.269-1.32,6.681-2.165,10.035-3.229c3.452-1.095,6.803-2.497,10.081-4.033
			c3.284-1.54,6.493-3.232,9.676-4.974c-0.495,0.161-0.99,0.316-1.491,0.459c-0.41,0.115-1.851,0.478-3.652,0.901
			c0.674-0.339,1.331-0.695,1.966-1.057C282.358,157.749,284.975,155.661,287.103,153.007z"/>
		<path style="opacity:0.5;fill:#C2C4C6;" d="M232.727,186.902c5.854-1.021,11.616-2.503,17.296-4.242
			c4.705-1.439,9.693-3.196,13.229-6.756c-2.311,0.271-4.548,0.991-6.873,1.179c-2.522,0.202-5.052,0.282-7.582,0.264
			c-5.081-0.042-10.27-0.076-15.325-0.622c-3.306-0.356-6.85-0.913-9.952-2.279c-0.107,0.28-0.218,0.562-0.323,0.844
			c-1.606,4.271-2.925,8.625-4.074,13.026C223.684,188.136,228.23,187.685,232.727,186.902z"/>
		<path style="opacity:0.5;fill:#C2C4C6;" d="M228.895,168.689c3.232,0.52,6.521,1.26,9.789,1.481
			c5.814,0.397,12.277-0.184,17.477-3.051c-3.302-0.403-6.961,0.304-9.761-1.847c-0.234-0.18-0.167-0.548,0.155-0.566
			c5.267-0.286,10.442-0.403,15.638-1.433c3.813-0.754,8.129-1.722,11.175-4.308c-0.438-0.028-0.872-0.034-1.306-0.027
			c-0.46,0.146-0.923,0.281-1.39,0.398c-2.416,0.613-5.388,1.338-8.054,1.046c-1.789,0.218-3.553,0.261-5.39,0.123
			c-3.564-0.27-8.455-0.354-11.232-2.934c-0.228-0.212,0.009-0.586,0.295-0.508c4.214,1.146,8.776-0.417,12.808-1.66
			c2.015-0.623,4.002-1.329,5.941-2.148c-0.026-0.1-0.008-0.208,0.095-0.307c0.45-0.424,0.888-0.86,1.322-1.3
			c-5.963,1.001-11.983,1.358-18.042,0.604c-2.969-0.369-5.87-1.369-8.311-3.114c-1.119-0.8-2.054-1.802-3.014-2.767
			c-0.287,0.02-0.573,0.034-0.861,0.059c-0.055-0.145-0.199-0.193-0.399,0.032c-0.001,0.002-0.002,0.003-0.002,0.003
			c-0.215,0.02-0.43,0.034-0.645,0.058c-0.1,0.125-0.196,0.252-0.295,0.379c0,0.081,0.04,0.142,0.148,0.136
			c0.114-0.007,0.227-0.011,0.34-0.017c-0.958,1.268-1.521,2.671-2.128,4.176c-1.058,2.614-2.347,5.136-3.388,7.764
			c-1.191,3.008-2.462,5.986-3.709,8.973C227.03,168.27,227.939,168.535,228.895,168.689z"/>
	</g>
	<g>
		<g>
			<path style="fill:#AA4717;" d="M184.372,252.862c-0.791-2.463-2.302-4.72-3.162-7.185c-0.962-2.764-1.185-5.406-1.186-8.304
				c-0.001-1.238,0.337-2.523,0.509-3.749c0.191-1.364,0.277-2.745,0.502-4.104c0.457-2.749,0.742-5.517,1.159-8.27
				c0.7-4.598,1.233-9.529,0.379-14.177c0.165-0.057,0.389-0.318,0.416-0.432c0.296-1.255-0.013-1.574-1.194-1.811
				c-1.69-0.337-3.457-0.224-5.113-0.574c-1.455-0.309-3.093-0.104-4.581-0.097c-1.794,0.008-3.52,0.07-5.314,0.28
				c-0.16,0.02-0.451,0.324-0.272,0.476c0.033,0.034,0.068,0.06,0.105,0.088c-0.001,0.024,0.004,0.049,0.017,0.071
				c1.756,2.768,2.324,6.409,2.972,9.583c0.328,1.597,0.664,3.187,0.84,4.809c0.168,1.544,0.021,3.099,0.142,4.645
				c0.248,3.145-0.111,6.429-0.324,9.569c-0.204,2.99-0.778,5.939-1.451,8.857c-1.285,3.116-4.421,4.219-7.564,5.1
				c-3.43,0.959-6.975,1.457-10.518,1.739c-6.832,0.544-13.696-0.399-20.521,0.27c-1.748,0.168-5.033,0.236-6.286,1.784
				c-0.986,1.219,0.113,2.021,1.251,2.52c1.678,3.962-2.737,7.686-4.837,10.663c-0.847,0.608-1.515,1.367-1.711,2.334
				c-0.239,1.173,0.053,2.06,0.887,2.906c0.9,0.911,2.727,0.375,3.764,0.159c0.933-0.195,1.858-0.415,2.78-0.647
				c4.306,0.112,8.701,0.191,12.563,2.308c3.837,2.102,4.99,5.885,6.138,9.734c-0.275,1.108-0.197,2.199,0.622,3.104
				c1.694,1.87,3.085,0.683,4.174-0.871c1.372-1.119,2.724-2.23,4.229-3.211c1.81-1.183,3.691-2.257,5.556-3.348
				c3.417-2.003,6.692-4.2,9.738-6.737c2.948-2.453,5.488-5.278,7.854-8.286c1.565-1.989,2.749-3.943,3.254-6.245
				c0.896,0.713,2.872,0.445,3.819,0.046C185.127,255.39,184.632,253.673,184.372,252.862z"/>
			<path style="fill:#EA984F;" d="M124.771,259.764c1.041-1.553,1.684-3.732,1.086-5.547c0.14,0.049,0.274,0.093,0.397,0.135
				c2.918,0.945,6.151,1.22,9.189,1.514c2.995,0.288,5.974,0.345,8.751,1.534c-2.721,0.834-5.476,1.584-8.277,2.266
				c-3.916,0.957-7.931,1.799-11.734,3.145c-0.674,0.238-1.503,0.538-2.317,0.923C122.947,262.502,123.879,261.1,124.771,259.764z"
				/>
			<path style="fill:#EA984F;" d="M145.042,280.545c-0.318-1.606-0.707-3.169-1.302-4.753c-0.815-2.168-2.581-3.682-4.511-4.865
				c-3.119-1.914-6.896-2.259-10.585-2.225c2.134-0.56,4.269-1.117,6.45-1.512c4.158-0.75,8.362-1.228,12.578-1.496
				c3.431-0.219,6.997-0.016,10.337-0.933c-1.267,1.387-2.612,2.705-3.908,4.062c-2.479,2.6-5.16,5.278-7.119,8.302
				C146.384,278.05,145.544,279.275,145.042,280.545z"/>
			<path style="fill:#EA984F;" d="M183.527,255.164c-0.784,0.137-2.307,0.292-2.956-0.199c-0.07-0.053-0.151-0.057-0.231-0.03
				c0.07-0.51,0.112-1.038,0.113-1.587c0.001-0.273-0.417,0.045-0.435,0.212c-0.451,4.174-2.745,7.22-5.37,10.329
				c-2.461,2.917-5.23,5.442-8.242,7.78c-3.117,2.42-6.619,4.309-9.982,6.353c-2.132,1.298-4.344,2.584-6.255,4.212
				c-0.032,0.015-0.065,0.036-0.093,0.066c-0.021,0.021-0.041,0.043-0.062,0.064c-0.668,0.583-1.299,1.208-1.873,1.895
				c-0.036,0.043-0.057,0.085-0.073,0.129c-0.531,0.305-1.113,0.331-1.749-0.26c-1.851-1.723-0.328-4.119,0.653-5.867
				c1.618-2.88,4.114-5.28,6.322-7.705c2.115-2.323,4.47-4.458,6.447-6.902c1.45-1.796,1.931-3.675,1.032-5.827
				c-0.087-0.207-0.436,0.133-0.393,0.291c0.589,2.253-0.093,3.938-1.465,5.616c-3.342,0.988-6.829,0.885-10.278,1.061
				c-3.546,0.18-7.079,0.568-10.59,1.093c-3.277,0.491-6.499,1.152-9.693,2.031c-1.133,0.313-2.267,0.619-3.408,0.9
				c-0.284,0.011-0.567,0.022-0.846,0.034c-0.097,0.005-0.207,0.115-0.256,0.225c-0.29,0.065-0.579,0.133-0.871,0.193
				c-0.717,0.15-1.393,0.237-2.126,0.129c-1.497-0.222-1.864-2.193-1.104-3.273c0.958-1.362,2.837-1.939,4.328-2.503
				c1.499-0.566,3.054-0.923,4.596-1.347c3.449-0.947,6.936-1.755,10.399-2.648c6.692-1.728,13.04-4.2,19.262-7.199
				c0.164-0.08,0.322-0.532,0.055-0.407c-4.281,1.98-8.622,3.622-13.054,5.023c-2.425-1.26-4.945-1.663-7.654-1.873
				c-3.149-0.246-6.272-0.578-9.361-1.266c-1.274-0.284-2.62-0.548-3.676-1.368c0.044-0.733,0.363-1.173,0.958-1.316
				c0.579-0.161,1.165-0.288,1.758-0.385c0.847-0.155,1.707-0.254,2.562-0.354c3.222-0.371,6.49-0.261,9.726-0.182
				c6.632,0.165,13.181,0.07,19.68-1.409c2.391-0.544,4.755-1.253,6.892-2.477c1.039-0.595,1.754-1.27,2.273-2.088
				c0.107,0.018,0.313-0.115,0.349-0.23c2.003-6.398,2.84-13.275,2.576-19.98c-0.133-3.393-0.326-6.575-1.071-9.904
				c-0.684-3.056-1.341-6.612-3.19-9.215c0.986,0.073,1.957,0.013,2.948-0.133c0.613-0.091,1.618,0.131,2.268,0.135
				c0.764,0.002,1.528,0.006,2.292,0.009c1.178,0.004,2.32,0.228,3.505,0.245c0.985,0.013,2.756,0.019,3.665,0.699
				c0.785,4.39,0.502,9.26-0.134,13.637c-0.694,4.773-1.328,9.554-1.984,14.332c-0.272,1.978-0.542,3.806-0.554,5.811
				c-0.014,2.107,0.606,3.975,1.081,6c0.456,1.943,1.453,3.832,2.3,5.628C182.809,251.936,184.622,254.971,183.527,255.164z"/>
			<path style="fill:#EA984F;" d="M132.364,250.988c4.191-0.059,8.379-0.265,12.57-0.258c4.264,0.006,8.569,0.336,12.818-0.142
				c3.708-0.415,8.518-1.195,11.001-4.301c2.033-2.54,2.487-5.867,2.858-9.001c0.43-3.642,1.171-7.244,1.386-10.906
				c0.27-4.627,0.176-9.305-0.886-13.838c-0.528-2.251-1.327-4.412-1.925-6.641c-0.091-0.335-0.175-0.676-0.26-1.016
				c-0.933,0.127-1.847,0.181-2.776,0.11c1.849,2.602,2.506,6.159,3.19,9.215c0.746,3.329,0.938,6.512,1.071,9.904
				c0.265,6.705-0.573,13.582-2.576,19.98c-0.036,0.115-0.242,0.248-0.349,0.23c-0.519,0.818-1.234,1.493-2.273,2.088
				c-2.137,1.224-4.501,1.933-6.892,2.477c-6.499,1.479-13.048,1.574-19.68,1.409c-3.235-0.079-6.504-0.189-9.726,0.182
				c-0.855,0.101-1.715,0.199-2.562,0.354c-0.593,0.097-1.179,0.224-1.758,0.385c-0.205,0.049-0.373,0.137-0.511,0.256
				C127.479,251.074,129.947,251.022,132.364,250.988z"/>
			<path style="fill:#EA984F;" d="M124.593,264.584c3.438-0.656,6.845-1.237,10.259-2.031c4.77-1.106,9.574-2.135,14.082-4.096
				c1.939-0.846,3.867-1.759,5.697-2.821c1.33-0.772,2.805-1.693,3.482-3.105c-6.152,2.952-12.43,5.391-19.045,7.098
				c-3.463,0.894-6.95,1.701-10.399,2.648c-1.542,0.424-3.098,0.78-4.596,1.347c-1.491,0.565-3.37,1.141-4.328,2.503
				C121.22,265.296,122.992,264.889,124.593,264.584z"/>
			<path style="fill:#EA984F;" d="M159.743,263.653c-1.977,2.444-4.331,4.579-6.447,6.902c-2.208,2.425-4.704,4.825-6.322,7.705
				c-0.427,0.761-0.958,1.647-1.268,2.546c1.049-1.826,2.351-3.531,3.788-5.041c2.641-2.776,6.124-4.615,8.762-7.418
				c2.53-2.688,5.677-7.137,2.878-10.592c-0.092,0.107-0.176,0.218-0.259,0.331C161.629,260.13,161.134,261.932,159.743,263.653z"/>
			<path style="opacity:0.4;fill:#AA4717;" d="M144.661,283.027c1.26-3.511,3.471-6.629,6.113-9.6
				c2.208-2.48,4.429-4.947,6.64-7.425c2.232-2.503,4.432-5.358,3.553-8.81c-1.044,1.161-2.363,1.86-3.902,2.294
				c-2.52,0.709-5.091,1.201-7.675,1.612c-5.083,0.807-10.1,1.627-15.071,2.985c-2.592,0.711-5.167,1.48-7.726,2.301
				c-1.545,0.496-3.14,1.149-4.759,1.369c-1.601,0.218-2.67-0.198-3.076-1.244c-0.052,0.144-0.098,0.288-0.129,0.438
				c-0.239,1.173,0.053,2.06,0.887,2.906c0.9,0.911,2.727,0.375,3.764,0.159c0.933-0.195,1.858-0.415,2.78-0.647
				c4.306,0.112,8.701,0.191,12.563,2.308c3.837,2.102,4.99,5.885,6.138,9.734C144.624,281.96,144.576,282.506,144.661,283.027z"/>
			<path style="opacity:0.4;fill:#AA4717;" d="M128.9,262.337c5.206-1.316,10.468-2.44,15.665-3.779
				c4.74-1.223,8.836-3.982,13.068-6.36c-3.256,0.351-6.457,1.086-9.72,1.372c-3.811,0.333-7.555-0.271-11.344-0.641
				c-2.68-0.264-5.628-0.313-8.249-1.01c-1.118-0.298-1.994-0.813-2.43-1.65c-0.806,0.246-1.516,0.608-1.965,1.163
				c-0.986,1.219,0.113,2.021,1.251,2.52c1.678,3.962-2.737,7.686-4.837,10.663c-0.338,0.242-0.646,0.512-0.906,0.807
				C122.505,263.97,125.959,263.083,128.9,262.337z"/>
			<path style="opacity:0.4;fill:#AA4717;" d="M184.372,252.862c-0.791-2.463-2.302-4.72-3.162-7.185
				c-0.962-2.764-1.185-5.406-1.186-8.304c-0.001-1.238,0.337-2.523,0.509-3.749c0.191-1.364,0.277-2.745,0.502-4.104
				c0.457-2.749,0.742-5.517,1.159-8.27c0.7-4.598,1.233-9.529,0.379-14.177c0.165-0.057,0.389-0.318,0.416-0.432
				c0.296-1.255-0.013-1.574-1.194-1.811c-1.69-0.337-3.457-0.224-5.113-0.574c-1.455-0.309-3.093-0.104-4.581-0.097
				c-1.794,0.008-3.52,0.07-5.314,0.28c-0.16,0.02-0.451,0.324-0.272,0.476c0.033,0.034,0.068,0.06,0.105,0.088
				c-0.001,0.024,0.004,0.049,0.017,0.071c1.344,2.118,1.991,4.75,2.513,7.288c1.055-1.077,2.574-1.641,4.506-1.324
				c3.73,0.61,4.901,3.355,4.451,6.887c-0.245,1.937-0.749,3.816-1.113,5.73c-0.543,2.858-0.898,5.841-1.115,8.741
				c-0.245,3.295-0.086,6.496,0.995,9.644c0.977,2.844,2.27,5.565,3.142,8.445c0.079,0.26-0.221,0.472-0.447,0.343
				c-1.278-0.73-2.497-1.559-3.802-2.243c1.001,3.301,1.556,6.54-0.486,9.644c-2.586,3.931-5.909,7.231-9.502,10.242
				c-3.962,3.317-8.172,6.367-11.948,9.902c-2.426,2.27-4.713,4.68-7.025,7.061c1.065,0.211,1.982-0.699,2.75-1.792
				c1.372-1.119,2.724-2.23,4.229-3.211c1.81-1.183,3.691-2.257,5.556-3.348c3.417-2.003,6.692-4.2,9.738-6.737
				c2.948-2.453,5.488-5.278,7.854-8.286c1.565-1.989,2.749-3.943,3.254-6.245c0.896,0.713,2.872,0.445,3.819,0.046
				C185.127,255.39,184.632,253.673,184.372,252.862z"/>
		</g>
		<g>
			<g>
				<path style="fill:#AA4717;" d="M263.214,266.761c-2.081-2.777-4.676-5.248-7.063-7.76c-2.586-2.721-5.122-5.489-7.745-8.176
					c-1.146-1.172-2.347-2.284-3.552-3.396c-1.044-0.961-1.802-2.15-2.761-3.175c-2.156-3.064-3.797-6.224-5.144-9.767
					c-1.572-4.149-2.544-8.495-3.736-12.762c-1.172-4.191-2.243-8.408-3.18-12.661c-0.859-3.904-1.926-7.824-2.243-11.825
					c0.388-0.568,0.878-1.396,0.668-2.073c-0.407-1.318-2.566,0.102-3.328,0.381c-1.955,0.714-3.958,1.298-5.916,2.012
					c-0.98,0.36-1.953,0.745-2.942,1.076c-0.915,0.306-2.856,1.493-3.83,0.949c-0.25-0.14-0.679,0.37-0.441,0.546
					c0.075,0.055,0.152,0.099,0.23,0.135c0.923,1.744,1.516,3.605,2.216,5.446c0.702,1.846,1.526,3.644,2.277,5.47
					c1.729,4.206,3.762,8.281,5.602,12.438c1.749,3.948,3.382,7.955,5.085,11.926c1.42,3.312,2.674,6.536,3.046,10.006
					c-1.946,6.013-7.286,10.088-12.188,13.792c-2.651,2.002-5.417,3.85-8.053,5.873c-2.054,1.576-4.312,3.194-5.673,5.442
					c-0.804,1.332-0.397,3.001,1.419,2.918c0.67-0.032,1.328-0.149,1.974-0.326c0.394-0.018,0.784-0.085,1.198-0.146
					c1.378-0.199,2.803-0.078,4.179,0.049c2.301,0.215,4.388,0.393,6.571,1.203c4.178,1.554,7.915,4.714,10.504,8.354
					c0.337,1.8,1.201,3.021,3.053,2.715c1.31-0.216,2.252-1.35,2.89-2.495c3.195-2.967,5.946-6.315,10.086-8.033
					c4.461-1.849,9.141-1.643,13.816-1.222c1.763,0.951,3.568,1.012,5.148-0.997C266.911,270.731,264.287,268.19,263.214,266.761z"
					/>
				<path style="fill:#EA984F;" d="M230.222,281.167c-2.017-2.926-5.148-5.377-8.184-6.858c-2.259-1.103-4.605-1.62-7.099-1.81
					c-1.067-0.079-2.155-0.101-3.225-0.129c-0.617-0.015-1.241,0.08-1.865,0.182c1.327-0.589,2.596-1.349,3.802-2.05
					c2.814-1.639,5.505-3.471,8.375-5.013c2.122-1.142,7.789-4.426,9.971-2.34c-0.102,3.261-0.548,6.512-0.944,9.745
					C230.888,274.238,230.089,278.078,230.222,281.167z"/>
				<path style="fill:#EA984F;" d="M254.315,272.408c-2.438,0.111-4.899,0.728-7.221,1.445c-4.278,1.322-7.214,4.845-10.232,7.965
					c1.109-2.658,1.247-5.688,1.667-8.501c0.479-3.202,0.858-6.417,1.081-9.647c0.074-1.05,0.139-2.088,0.269-3.126
					c0.554-0.275,1.183-0.648,1.452-1.213c0.425-0.891,3.855,0.949,4.385,1.201c3.013,1.431,5.405,4.49,7.788,6.79
					c1.222,1.181,3.066,3.569,5.087,5.224C257.164,272.325,255.626,272.35,254.315,272.408z"/>
				<path style="fill:#EA984F;" d="M264.279,272.918c-2.81,1.911-5.505-1.435-7.153-3.265c-2.043-2.271-4.346-4.287-6.52-6.428
					c-0.919-0.904-1.791-1.929-2.843-2.678c-1.113-0.789-2.556-1.327-3.824-1.792c-0.78-0.286-1.637-0.534-2.451-0.335
					c-0.606,0.149-1.019,1.074-1.524,1.55c0.033-0.218,0.063-0.438,0.104-0.657c0.322-1.7,1.234-3.142,1.94-4.69
					c0.14-0.305-0.237-0.252-0.369-0.099c-3.137,3.651-2.699,8.848-3.158,13.324c-0.264,2.567-0.638,5.123-1.033,7.675
					c-0.429,2.77-0.535,8.495-4.163,9.09c-3.947,0.648-1.195-13.947-0.965-15.98c0.601-5.323,0.534-10.491-0.394-15.773
					c-0.06-0.337-0.534,0.076-0.507,0.311c0.353,2.979,0.623,5.972,0.596,8.973c-1.316-1.103-3.594-0.155-5.095,0.371
					c-2.67,0.939-5.208,2.314-7.635,3.753c-2.625,1.559-5.162,3.255-7.855,4.699c-1.434,0.768-2.969,1.454-4.584,1.708
					c-1.932,0.304-2.167-1.222-1.195-2.582c0.468-0.653,1.086-1.19,1.69-1.714c4.642-4.03,9.915-7.247,14.66-11.153
					c3.584-2.95,7.063-6.15,8.542-10.513c0.035,0.746,0.033,1.504-0.025,2.278c-0.038,0.516,0.605,0.066,0.654-0.234
					c0.663-4.083-0.516-7.766-1.982-11.53c-1.72-4.414-3.694-8.76-5.56-13.116c-1.785-4.169-3.849-8.212-5.71-12.348
					c-1.681-3.738-3.021-7.804-5.067-11.364c0.527,0,1.083-0.225,1.602-0.384c1.768-0.533,3.5-1.245,5.24-1.86
					c1.568-0.554,3.148-1.056,4.725-1.577c0.799-0.263,1.584-0.569,2.369-0.877c0.411-0.161,0.627-0.125,0.727,0.021
					c-0.082,0.063-0.162,0.166-0.161,0.244c0.003,0.32,0.011,0.639,0.023,0.957c-0.042,0.123-0.081,0.236-0.112,0.329
					c-0.061,0.188,0.024,0.271,0.14,0.274c0.219,4.047,1.104,8.001,1.926,11.966c0.93,4.484,2.025,8.918,3.254,13.326
					c2.257,8.102,4.063,16.327,9.504,22.992c0.038,0.046,0.087,0.063,0.142,0.061c0.237,0.396,0.49,0.777,0.786,1.1
					c0.923,1.006,1.948,1.895,2.918,2.854c2.329,2.308,4.59,4.672,6.84,7.058c2.26,2.393,4.573,4.738,6.805,7.161
					C260.826,265.393,266.96,271.094,264.279,272.918z"/>
				<path style="fill:#EA984F;" d="M209.212,267.712c3.285-2.374,6.627-4.648,9.857-7.105c3.202-2.436,6.434-4.897,9.326-7.703
					c1.337-1.3,3.188-2.813,3.66-4.691c0.456-1.813,0.269-3.685-0.108-5.498c-0.792-3.806-2.188-7.451-3.655-11.041
					c-1.561-3.823-3.02-7.675-4.512-11.524c-2.663-6.877-5.628-13.626-8.622-20.362c-0.234,0.075-0.468,0.157-0.705,0.228
					c-0.519,0.159-1.075,0.384-1.602,0.384c2.045,3.561,3.386,7.626,5.067,11.364c1.861,4.136,3.925,8.179,5.71,12.348
					c1.865,4.356,3.839,8.702,5.56,13.116c1.466,3.765,2.645,7.447,1.982,11.53c-0.049,0.301-0.692,0.75-0.654,0.234
					c0.059-0.774,0.061-1.532,0.025-2.278c-1.479,4.362-4.957,7.563-8.542,10.513c-4.744,3.906-10.018,7.123-14.66,11.153
					c-0.604,0.524-1.222,1.06-1.69,1.714c-0.313,0.439-0.499,0.892-0.545,1.298C206.472,270.157,207.739,268.776,209.212,267.712z"
					/>
				<path style="fill:#EA984F;" d="M232.011,284.086c0.075-0.891,0.208-1.772,0.339-2.602c0.577-3.635,1.311-7.242,1.745-10.9
					c0.362-3.06,0.521-6.161,0.295-9.238c-0.192-2.628-0.573-5.634-2.338-7.716c0.804,5.017,0.839,9.938,0.267,15.004
					C232.122,270.387,230.049,281.478,232.011,284.086z"/>
				<path style="fill:#EA984F;" d="M261.325,271.374c-1.542-1.853-3.103-3.678-4.68-5.502c-1.618-1.872-3.329-3.525-5.143-5.198
					c-1.501-1.386-3.137-3.087-5.155-3.685c1.382,2.118,3.077,4.065,4.293,6.271c2.164,2.129,4.455,4.134,6.486,6.393
					c1.429,1.588,3.646,4.313,6.042,3.763C262.521,272.768,261.912,272.078,261.325,271.374z"/>
			</g>
			<path style="opacity:0.4;fill:#AA4717;" d="M259.956,271.586c-1.891-1.866-3.697-3.819-5.615-5.659
				c-3.564-3.414-7.688-6.216-10.914-9.984c-0.161-0.188-0.07-0.53,0.214-0.517c5.169,0.232,8.893,4.126,12.539,7.337
				c2.302,2.025,5.134,3.595,7.196,5.885c0.877,0.972,1.652,2.031,2.439,3.08c0.314-1.764-1.696-3.76-2.602-4.967
				c-2.081-2.777-4.676-5.248-7.063-7.76c-2.586-2.721-5.122-5.489-7.745-8.176c-1.146-1.172-2.347-2.284-3.552-3.396
				c-1.044-0.961-1.802-2.15-2.761-3.175c-2.156-3.064-3.797-6.224-5.144-9.767c-1.572-4.149-2.544-8.495-3.736-12.762
				c-1.172-4.191-2.243-8.408-3.18-12.661c-0.859-3.904-1.926-7.824-2.243-11.825c0.388-0.568,0.878-1.396,0.668-2.073
				c-0.407-1.318-2.566,0.102-3.328,0.381c-1.955,0.714-3.958,1.298-5.916,2.012c-0.98,0.36-1.953,0.745-2.942,1.076
				c-0.915,0.306-2.856,1.493-3.83,0.949c-0.25-0.14-0.679,0.37-0.441,0.546c0.075,0.055,0.152,0.099,0.23,0.135
				c0.923,1.744,1.516,3.605,2.216,5.446c0.423,1.112,0.89,2.207,1.359,3.301c2.196-1.185,4.64-2.607,7.101-2.334
				c2.374,0.263,3.569,1.671,4.124,3.923c1.791,7.264,4.163,14.302,6.708,21.339c1.585,4.382,2.945,8.991,5.192,13.089
				c0.835,1.525,2.18,3.107,2.412,4.886c0.181,1.385-0.364,2.605-1.076,3.769c-1.252,2.046-2.262,4.077-2.722,6.455
				c-0.423,2.186-0.572,4.402-0.798,6.615c-0.455,4.446-0.691,8.939-1.513,13.34c-0.233,1.242-0.602,5.202-2.78,4.146
				c-1.668-0.809-0.733-4.799-0.612-6.174c0.768-8.717,3.03-17.76,0.322-26.334c-0.869,1.788-1.706,3.586-2.892,5.194
				c-1.211,1.639-3.013,2.771-4.766,3.751c-2.107,1.177-4.296,2.202-6.388,3.407c-2.273,1.31-4.443,2.779-6.626,4.233
				c-2.016,1.344-4.365,2.964-6.901,2.982c-0.116,0.002-0.222-0.008-0.327-0.014c-0.364,1.173,0.162,2.361,1.698,2.289
				c0.67-0.032,1.328-0.149,1.974-0.326c0.394-0.018,0.784-0.085,1.198-0.146c1.378-0.199,2.803-0.078,4.179,0.049
				c2.301,0.215,4.388,0.393,6.571,1.203c4.178,1.554,7.915,4.714,10.504,8.354c0.337,1.8,1.201,3.021,3.053,2.715
				c1.31-0.216,2.252-1.35,2.89-2.495c3.195-2.967,5.946-6.315,10.086-8.033c4.461-1.849,9.141-1.643,13.816-1.222
				c1.029,0.553,2.072,0.801,3.076,0.517C262.011,273.684,260.909,272.527,259.956,271.586z"/>
		</g>
		<g>
			<path style="fill:#B8BABC;" d="M241.809,156.137c-4.969-13.224-15.848-23.149-28.229-29.405
				c-4.356-5.027-9.612-9.296-14.989-13.149c-3.284-2.354-6.676-4.263-10.466-5.672c-4.112-1.527-8.412-2.454-12.662-3.496
				c-4.173-1.022-8.327-1.979-12.591-2.544c-1.915-0.252-3.885-0.697-5.735-1.41c-1.958-1.202-3.914-2.396-5.767-3.79
				c-2.819-2.122-5.42-4.557-7.684-7.264c-4.821-5.764-7.863-12.904-11.029-19.648c-3.24-6.904-6.188-13.94-9.804-20.662
				c-1.641-3.048-3.552-6.072-5.726-8.768c-1.753-2.177-3.688-4.352-6.16-5.689c0.621-0.675,1.051-1.574,1.417-2.362
				c0.365-0.786,0.779-1.55,0.854-2.368c-0.081-0.415-0.209-0.816-0.404-1.195c-0.157,0.073-0.326,0.244-0.369,0.314
				c-0.61,1.016-1.226,1.883-2.06,2.733c-0.224,0.229-0.501,0.528-0.802,0.818c1.039-1.391,1.825-3.227,1.515-4.755
				c-0.09-0.447-0.625-0.057-0.741,0.167c-1.578,3.065-6.272,3.665-9.279,3.916c-3.744,0.307-7.577,0.577-11.241,1.434
				c-6.609,1.548-13.056,4.363-18.303,8.723c-4.697,3.902-8.438,9.884-10.141,15.736c-0.406,1.392-0.583,2.845-0.846,4.268
				c-0.314,1.705-0.638,3.344-0.524,5.083c0.004,0.082,0.01,0.26,0.019,0.495c-0.114-0.004-0.288,0.18-0.261,0.301
				c0.146,0.679,0.299,1.353,0.463,2.023c0.063,0.379,0.145,0.729,0.252,1.002c1.177,4.517,2.836,8.805,5.505,12.741
				c3.545,5.23,8.807,8.969,14.346,11.851c5.592,2.907,11.895,4.357,18.161,3.27c1.651,1.749,3.348,3.386,4.729,5.381
				c1.663,2.403,2.757,4.938,3.454,7.768c0.635,2.572-0.158,4.773-0.509,7.292c-0.369,2.645-0.999,5.206-1.886,7.726
				c-1.75,4.964-2.949,9.751-3.299,15.015c-0.339,5.107-0.264,10.229,0.91,15.233c1.126,4.799,3.541,9.263,6.383,13.252
				c2.788,3.914,6.023,7.588,10.068,10.232c4.985,3.261,10.633,5.929,16.503,7.614c4.593,4.051,9.243,8.035,13.91,12.002
				c4.768,4.053,9.252,8.11,14.857,11.002c5.223,2.693,10.826,4.459,16.727,4.668c3.192,0.113,6.425-0.117,9.615-0.252
				c2.849-0.121,5.715-0.411,8.508-0.995c3.261,0.355,6.559,0.402,9.801,0.153c2.972-0.229,5.866-0.776,8.79-1.311
				c1.969-0.36,3.693-0.744,5.328-1.715c5.556,0.104,10.03-3.832,13.183-8.056c1.174-1.572,2.252-3.209,3.248-4.896
				c-0.003,0.008-0.006,0.016-0.008,0.025c-0.043,0.129-0.021,0.191,0.028,0.218c1.553-3.31,2.956-6.665,4.056-10.102
				c1.073-3.716,1.815-7.516,2.097-11.472C245.537,170.321,244.379,162.973,241.809,156.137z"/>
			<path style="fill:#FFFFFF;" d="M244.215,177.287c-0.175,3.738-0.813,7.451-1.751,11.07c-0.646,2.491-1.555,4.876-2.44,7.274
				c-1.081,2.06-2.275,4.045-3.584,5.887c-3.227,4.547-6.95,8.951-12.853,9.473c0.1-0.266,0.015-0.591-0.319-0.365
				c-0.217,0.145-0.437,0.276-0.658,0.401c-2.763-0.07-5.559-1.614-7.934-2.821c-0.738-0.375-1.478-0.766-2.199-1.184
				c-1.012-0.423-2.018-0.87-3.026-1.311c1.393,1.262,3.044,2.221,4.705,3.138c2.063,1.137,4.422,2.497,6.815,2.915
				c-1.557,0.552-3.188,0.783-4.891,1.175c-2.848,0.656-5.807,0.945-8.719,1.141c-2.534,0.173-5.112,0.11-7.677-0.144
				c0.002-0.112-0.058-0.184-0.221-0.155c-0.172,0.026-0.343,0.049-0.515,0.075c-2.898-0.331-5.769-0.907-8.53-1.684
				c-2.754-0.777-5.401-1.829-8-2.992c-2.41-0.754-4.769-1.679-7.05-2.707c-2.595-1.169-5.111-2.527-7.738-3.622
				c2.206,1.177,4.395,2.381,6.638,3.487c5.477,2.706,10.897,5.49,16.837,7.067c1.424,0.379,2.871,0.689,4.331,0.939
				c-4.69,0.566-9.42,0.811-14.145,0.758c-6.406-0.072-12.45-2.188-18.064-5.14c-5.366-2.819-9.728-6.944-14.339-10.805
				c-4.189-3.509-8.393-6.997-12.638-10.438c3.388,0.879,6.837,1.427,10.266,1.565c2.358,0.097,4.684-0.048,6.993-0.336
				c-1.664-0.002-3.329-0.041-4.985-0.216c-0.452-0.049-0.904-0.105-1.356-0.168c-0.132-0.004-0.26-0.008-0.392-0.014
				c-4.284-0.205-8.557-1.161-12.637-2.539c-0.104-0.083-0.207-0.166-0.311-0.252c-0.07-0.055-0.166-0.013-0.242,0.063
				c-0.835-0.291-1.663-0.599-2.48-0.921c-4.801-1.896-9.826-4.257-13.93-7.422c-4.064-3.138-7.357-7.431-10.038-11.773
				c-5.75-9.317-6.511-20.826-4.493-31.417c0.51-2.677,1.441-5.267,2.299-7.845c0.757-2.268,1.301-4.496,1.864-6.813
				c0.306-1.257,0.329-2.555,0.661-3.813c0.241-0.915,0.341-1.853,0.392-2.794c0.122-2.221-0.789-4.854-1.723-6.834
				c-1.605-3.406-4.031-6.028-6.737-8.531c1.746-0.379,3.412-0.988,5.009-1.756c-0.933,0.305-1.885,0.542-2.872,0.659
				c-0.617,0.072-1.232,0.116-1.85,0.146c-0.355,0.085-0.711,0.164-1.073,0.232c-0.012-0.011-0.023-0.021-0.035-0.032
				c-0.101-0.091-0.246-0.019-0.35,0.103c-0.072,0.012-0.141,0.028-0.213,0.038c-6.304,0.99-12.549-0.951-18.053-3.895
				c-5.12-2.735-9.806-6.358-13.187-11.113c-2.455-3.454-4.255-7.472-5.562-11.563c0.17-0.133,0.3-0.536,0.054-0.481
				c-0.318,0.072-0.532-2.353-0.546-2.436c-0.285-1.83-0.12-3.657,0.222-5.462c0.681-3.605,1.453-6.917,3.114-10.218
				c3.08-6.119,7.545-10.789,13.529-14.11c6.185-3.433,12.898-4.98,19.883-5.633c2.94-0.273,5.958-0.384,8.768-1.359
				c1.383-0.479,3.016-1.395,4.076-2.592c-0.142,1.222-0.922,2.654-1.708,3.602c-0.249,0.486-0.532,0.956-0.821,1.422
				c0.021,0.004,0.039,0.008,0.067,0.004c1.042-0.134,1.788-1.026,2.541-1.688c0.847-0.743,1.511-1.567,2.114-2.471
				c-0.02,0.843-0.54,1.673-0.884,2.412c-0.154,0.331-0.334,0.631-0.529,0.921c-0.096,0.563-0.353,1.123-0.691,1.627
				c0.13,0.137,0.26,0.272,0.382,0.417c2.57,1.623,4.623,4.202,6.395,6.572c2.197,2.938,4.126,6.153,5.788,9.419
				c3.467,6.82,6.446,13.85,9.762,20.738c3.017,6.267,5.894,12.605,10.309,18.041c4.181,5.144,10.154,9.924,16.383,12.311
				c0.15,0.059,0.399-0.232,0.346-0.383c0.344,0.092,0.692,0.179,1.047,0.258c4.089,0.915,8.234,1.449,12.309,2.475
				c4.056,1.02,8.145,1.919,12.137,3.177c4.4,1.385,8.337,3.408,12.116,6.04c5.155,3.586,10.112,7.635,14.373,12.292
				c-0.01,0.063,0.004,0.115,0.057,0.144c0.046,0.024,0.094,0.052,0.141,0.076c1.319,1.457,2.574,2.971,3.743,4.547
				c5.02,6.784,7.919,14.637,11.285,22.293c0.139,0.314,0.647-0.222,0.553-0.491c-2.795-7.907-6.103-15.685-11.023-22.523
				c-0.547-0.762-1.119-1.505-1.707-2.232c11.123,6.485,20.718,15.513,25.793,27.577
				C243.433,162.531,244.558,169.982,244.215,177.287z"/>
			<path style="fill:#4E402C;" d="M110.032,166.688c-3.33-5.98-5.611-12.496-6.49-19.298c-0.507-3.927-0.732-7.933-0.562-11.892
				c0.031-0.724,0.07-1.449,0.109-2.173c-0.169,0.651-0.322,1.307-0.447,1.966c-2.018,10.591-1.257,22.1,4.493,31.417
				c2.681,4.343,5.974,8.636,10.038,11.773c1.643,1.265,3.434,2.401,5.298,3.433C117.509,177.589,113.252,172.472,110.032,166.688z"
				/>
			<path style="fill:#4E402C;" d="M119.223,174.189c-4.822-7.399-9.731-14.927-11.176-23.727
				C108.381,159.357,112.971,167.923,119.223,174.189z"/>
			<path style="fill:#4E402C;" d="M149.139,137.026c0.968,5.006,1.855,10.034,3.57,14.839c0.038-3.238-0.287-6.531-1.152-9.642
				C151.012,140.265,150.16,138.605,149.139,137.026z"/>
			<path style="fill:#4E402C;" d="M145.717,145.66c-0.099-0.137-0.2-0.272-0.301-0.409c1.345,6.813,3.545,13.439,5.935,19.955
				c0.455-4.176-0.504-8.606-1.874-12.508C148.601,150.203,147.264,147.807,145.717,145.66z"/>
			<path style="fill:#4E402C;" d="M141.436,159.18c0.889,2.122,1.827,4.225,2.683,6.363c1.455,3.64,2.575,7.414,4.168,10.996
				c0.634-4.045-0.967-8.88-2.981-12.25C144.222,162.475,142.778,160.856,141.436,159.18z"/>
			<path style="fill:#4E402C;" d="M134.356,167.907c-1.041-0.809-2.115-1.601-3.149-2.436c3.142,4.298,6.944,8.133,11.067,11.482
				C140.16,173.526,137.536,170.384,134.356,167.907z"/>
			<path style="fill:#4E402C;" d="M114.727,157.92c0.122,0.212,0.241,0.424,0.37,0.633c1.942,3.139,4.273,6.006,6.783,8.707
				c4.6,4.952,9.917,9.425,16.095,12.256c-5.18-4.77-10.512-9.327-15.838-13.935C119.426,163.237,116.905,160.71,114.727,157.92z"/>
			<path style="opacity:0.5;fill:#BCBCBA;" d="M98.014,98.053c0.072-0.01,0.141-0.026,0.213-0.038
				c0.103-0.121,0.249-0.193,0.35-0.103c0.011,0.012,0.022,0.021,0.035,0.032c0.362-0.068,0.718-0.147,1.073-0.232
				c0.595-0.029,1.191-0.072,1.785-0.141c1.274-0.663,2.485-1.463,3.599-2.427c3.109-2.69,5.354-6.117,7.203-9.747
				c-3.419,3.658-6.929,7.324-12.21,7.879c-0.234,0.024-0.373-0.274-0.263-0.457c1.593-2.625,3.422-5.105,4.936-7.78
				c1.547-2.735,3.167-5.934,3.011-9.172c-0.155-3.239-1.992-6.004-5.497-5.817c-2.644,0.14-5.137,1.197-7.519,2.276
				c-0.189,0.086-0.373,0.016-0.446-0.182c-1.569-4.209-1.086-11.579-5.989-13.669c-2.797-1.191-5.956-0.17-8.287,1.582
				c-1.653,1.243-2.96,3.111-4.8,4.075c-1.524,0.8-3.216-0.27-4.257-1.372c-1.501-1.583-2.622-3.973-5.252-3.378
				c-1.926,0.437-3.491,1.757-4.7,3.428c-0.018,0.097-0.037,0.193-0.056,0.292c-0.342,1.805-0.507,3.632-0.222,5.462
				c0.014,0.083,0.228,2.508,0.546,2.436c0.246-0.055,0.116,0.349-0.054,0.481c1.307,4.091,3.107,8.108,5.562,11.563
				c3.381,4.755,8.067,8.378,13.187,11.113C85.464,97.102,91.71,99.043,98.014,98.053z"/>
			<path style="fill:#337A69;" d="M73.272,44.309c5.69-4.053,12.14-6.447,18.862-8.173c3.456-0.887,7.046-1.479,10.436-2.604
				c1.133-0.375,2.525-0.968,3.747-1.781c-0.027,0.01-0.055,0.021-0.082,0.031c-2.81,0.976-5.827,1.087-8.768,1.359
				c-6.985,0.652-13.698,2.2-19.883,5.633c-5.984,3.321-10.449,7.991-13.529,14.11c-0.708,1.406-1.253,2.813-1.699,4.246
				C64.724,51.955,68.644,47.604,73.272,44.309z"/>
			<path style="fill:#337A69;" d="M91.179,49.649c-1.58,4.592-0.609,10.084,2.557,13.773c-0.548-4.886-2.128-9.506-0.676-14.436
				c0.625-2.122,1.609-4.174,3.133-5.637C93.877,44.917,91.998,47.268,91.179,49.649z"/>
			<path style="opacity:0.5;fill:#BCBCBA;" d="M107.466,116.821c-0.331,1.258-0.354,2.556-0.661,3.813
				c-0.133,0.551-0.266,1.095-0.401,1.639c-0.063,3.882-0.026,7.735,0.704,11.458c0.429-2.453,1.072-4.849,1.775-7.058
				c0.617-1.938,1.427-3.802,2.068-5.729c0.772-2.325,0.909-4.818,0.493-7.229c-0.8-4.617-2.953-8.961-6.049-12.47
				c-0.182-0.207-0.053-0.497,0.215-0.52c2.722-0.229,5.253-1.478,7.374-3.17c-3.094,0.474-6.227,0.777-9.341,0.34
				c-0.312-0.044-0.267-0.512,0-0.586c3.152-0.879,6.549-2.673,8.624-5.327c-0.264,0.117-0.531,0.233-0.798,0.351
				c-1.147,0.762-2.393,1.326-3.74,1.584c-4.754,1.934-9.844,3.652-14.936,4.317c1.726,0.137,3.471,0.095,5.22-0.182
				c0.072-0.01,0.141-0.026,0.213-0.038c0.103-0.121,0.249-0.193,0.35-0.103c0.011,0.012,0.022,0.021,0.035,0.032
				c0.362-0.068,0.718-0.147,1.073-0.232c0.618-0.03,1.233-0.074,1.85-0.146c0.987-0.117,1.939-0.354,2.872-0.659
				c-1.597,0.768-3.263,1.377-5.009,1.756c2.706,2.503,5.131,5.125,6.737,8.531c0.934,1.98,1.845,4.613,1.723,6.834
				C107.807,114.969,107.707,115.906,107.466,116.821z"/>
			<path style="opacity:0.5;fill:#BCBCBA;" d="M128.194,66.707c1.141,9.035-0.206,18.455-2.531,27.225
				c3.723-3.037,4.645-8.993,5.008-13.468c0.032-0.396,0.563-0.387,0.607,0c0.505,4.469-0.03,9.775,2.242,13.839
				c0.508-4.749,0.053-9.559-0.611-14.272c-0.054-0.385,0.443-0.533,0.586-0.161c1.677,4.368,3.962,8.671,7.334,11.979
				c1.508,1.478,3.231,2.965,5.17,3.852c0.223,0.101,0.48,0.213,0.758,0.326c-0.014-0.619-0.032-1.239-0.064-1.862
				c-1.324-1.27-2.555-2.602-3.658-3.956c-4.416-5.436-7.293-11.774-10.309-18.041c-2.16-4.488-4.18-9.033-6.282-13.544
				C127.228,61.263,127.845,63.951,128.194,66.707z"/>
			<path style="fill:#BCBCBA;" d="M176.049,207.221c2.293,1.848,4.78,3.446,7.466,4.778c0.227,0.112,0.183,0.51-0.072,0.555
				c-2.982,0.54-5.883,0.056-8.852-0.309c-2.499-0.309-5.009-0.528-7.503-0.881c-0.504-0.07-1.007-0.147-1.508-0.229
				c4.939,2.323,10.189,3.905,15.709,3.968c4.726,0.053,9.456-0.191,14.145-0.758c-1.46-0.25-2.907-0.561-4.331-0.939
				C185.809,211.999,180.927,209.635,176.049,207.221z"/>
			<path style="fill:#DADBDD;" d="M240.588,155.766c-5.075-12.064-14.67-21.092-25.793-27.577c0.588,0.727,1.16,1.471,1.707,2.232
				c4.919,6.839,8.228,14.616,11.023,22.523c0.094,0.27-0.414,0.806-0.553,0.491c-3.366-7.656-6.265-15.509-11.285-22.293
				c-1.169-1.576-2.423-3.09-3.743-4.547c-0.047-0.024-0.095-0.052-0.141-0.076c-0.053-0.028-0.067-0.081-0.057-0.144
				c-4.261-4.657-9.218-8.706-14.373-12.292c-3.779-2.632-7.715-4.655-12.116-6.04c-3.992-1.258-8.081-2.157-12.137-3.177
				c-3.608-0.907-7.271-1.431-10.903-2.175c0.028,1.362,0.164,2.707,0.278,3.902c0.405,4.244,1.395,8.366,2.441,12.493
				c2.565,10.118,5.855,19.913,9.52,29.68c0.124,0.331-0.381,0.519-0.555,0.232c-3.441-5.659-6.442-11.645-10.655-16.781
				c2.875,7.82,4.6,16.868,2.127,24.936c-0.063,0.203-0.355,0.318-0.508,0.135c-3.071-3.692-4.439-8.34-6.993-12.345
				c-1.038-1.63-2.312-3.081-3.595-4.524c0.17,1.026,0.332,2.056,0.488,3.092c0.731,4.849,1.752,10.238,0.152,15.015
				c-0.068,0.202-0.348,0.316-0.508,0.132c-0.444-0.504-0.853-1.032-1.236-1.576c1.223,4.611,1.734,9.346,0.887,13.955
				c-0.033,0.181-0.296,0.296-0.446,0.183c-2.225-1.685-3.084-4.574-4.231-7.001c-0.264-0.561-0.545-1.113-0.835-1.665
				c0.643,2.118,1.263,4.246,1.995,6.326c0.726,2.059,1.496,4.158,1.827,6.325c0.233,1.529,0.462,3.551-0.531,4.89
				c-2.135,2.878-6.14,1.275-8.601-0.238c-2.126-1.309-4.055-2.891-5.886-4.583c2.239,2.747,4.809,5.314,5.74,8.799
				c0.051,0.192-0.095,0.382-0.293,0.386c-5.835,0.061-11.236-4.098-15.658-7.474c-4.463-3.408-7.913-7.745-11.338-12.125
				c1.932,3.857,4.64,7.395,5.523,11.672c0.055,0.271-0.202,0.459-0.446,0.343c-4.861-2.3-8.796-6.411-11.828-10.777
				c-2.331-3.359-4.345-7.058-5.581-10.982c0.132,1.612,0.277,3.228,0.458,4.838c0.823,2.342,1.88,4.607,3.205,6.756
				c2.681,4.343,5.974,8.636,10.038,11.773c4.104,3.165,9.129,5.526,13.93,7.422c0.817,0.322,1.645,0.63,2.48,0.921
				c0.075-0.075,0.171-0.117,0.242-0.063c0.103,0.086,0.206,0.169,0.311,0.252c4.08,1.378,8.353,2.334,12.637,2.539
				c0.132,0.006,0.26,0.01,0.392,0.014c0.453,0.063,0.905,0.119,1.356,0.168c1.657,0.175,3.321,0.214,4.985,0.216
				c-2.309,0.288-4.635,0.433-6.993,0.336c-3.429-0.139-6.878-0.687-10.266-1.565c1.786,1.447,3.562,2.906,5.335,4.369
				c2.733,1.779,5.962,2.759,9.07,3.65c3.372,0.969,6.772,1.866,10.2,2.62c-3.123-1.774-6.501-3.231-9.012-5.852
				c-0.208-0.217-0.003-0.592,0.295-0.508c3.127,0.887,5.94,2.561,9.027,3.548c1.417,0.455,7.001,2.073,7.375-0.583
				c0.264-1.874-1.328-3.962-2.335-5.401c-0.967-1.381-2.05-2.685-2.985-4.087c-0.191-0.288,0.247-0.623,0.477-0.367
				c2.173,2.398,4.551,4.895,7.438,6.438c-0.364-3.429-2.974-6.557-4.715-9.384c-0.18-0.292,0.242-0.623,0.477-0.367
				c1.23,1.343,2.433,2.721,3.503,4.198c0.883,1.216,1.505,2.902,2.763,3.791c0.859-2.277,0.727-5.047,0.756-7.433
				c0.036-2.997-1.077-5.823-1.256-8.798c-0.015-0.25,0.352-0.423,0.518-0.214c1.662,2.091,2.33,4.772,3.874,6.919
				c-0.225-2.813-0.831-5.589-0.936-8.414c-0.074-2.021-0.423-4.524,0.699-6.328c0.11-0.176,0.424-0.218,0.524,0
				c1.749,3.823,2.992,7.83,5.123,11.48c0.081,0.138,0.165,0.276,0.247,0.417c-2.553-11.514-3.69-23.21-0.554-34.905
				c0.083-0.309,0.486-0.267,0.585,0c2.557,6.83,4.999,13.713,8.35,20.197c-0.793-5.964-2.31-11.821-2.776-17.831
				c-0.023-0.299,0.433-0.419,0.565-0.153c2.375,4.73,6.232,7.689,11.349,8.948c4.637,1.141,9.44,1.339,14.104,2.341
				c4.69,1.011,9.185,2.765,13.015,5.699c3.618,2.771,6.237,6.542,7.953,10.736c0.116,0.286-0.313,0.508-0.508,0.294
				c-2.662-2.914-6.226-4.464-9.635-6.28c1.92,2.086,3.293,4.734,4.201,7.356c0.097,0.28-0.228,0.439-0.446,0.343
				c-5.064-2.23-9.82-5.063-14.655-7.737c2.383,4.592,5.135,8.969,7.206,13.728c1.632,3.753,3.384,8.096,2.829,12.272
				c-0.503,3.787-3.69,5.574-7.265,5.773c-6.91,0.386-14.116-2.494-19.95-5.972c-3.321-1.982-6.504-4.323-9.306-7.038
				c0.518,0.729,1.043,1.456,1.577,2.177c2.508,3.385,5.065,6.75,8.048,9.737c2.738,2.743,5.931,5.063,8.459,8.005
				c0.157,0.182,0.072,0.54-0.215,0.517c-3.42-0.259-6.434-2.681-9.238-4.433c-3.14-1.963-5.925-4.345-8.546-6.931
				c1.467,2.491,3.521,4.72,5.591,6.665c2.217,2.084,4.856,3.876,6.285,6.643c0.098,0.189,0.005,0.371-0.182,0.445
				c-1.377,0.561-2.904,0.316-4.337,0.142c-1.739-0.208-3.492-0.28-5.234-0.47c-3.562-0.389-7.115-0.896-10.623-1.633
				c-1.797-0.377-3.581-0.909-5.319-1.554c0.278,0.256,0.561,0.508,0.847,0.756c0.159,0.072,0.318,0.148,0.479,0.22
				c2.282,1.028,4.641,1.953,7.05,2.707c2.6,1.163,5.246,2.215,8,2.992c2.761,0.776,5.632,1.352,8.53,1.684
				c0.171-0.026,0.343-0.049,0.515-0.075c0.163-0.028,0.223,0.043,0.221,0.155c2.565,0.254,5.143,0.316,7.677,0.144
				c2.912-0.195,5.871-0.484,8.719-1.141c1.703-0.392,3.333-0.623,4.891-1.175c-2.394-0.418-4.752-1.778-6.815-2.915
				c-1.661-0.917-3.313-1.876-4.705-3.138c1.009,0.441,2.015,0.889,3.026,1.311c0.721,0.418,1.461,0.809,2.199,1.184
				c2.375,1.207,5.171,2.751,7.934,2.821c0.221-0.125,0.441-0.256,0.658-0.401c0.335-0.226,0.419,0.1,0.319,0.365
				c5.903-0.521,9.626-4.926,12.853-9.473c1.309-1.842,2.503-3.827,3.584-5.887c0.886-2.398,1.794-4.783,2.44-7.274
				c0.938-3.619,1.576-7.332,1.751-11.07C244.558,169.982,243.433,162.531,240.588,155.766z"/>
			<path style="fill:#DADBDD;" d="M240.588,155.766c-0.646-1.536-1.367-3.021-2.154-4.462c1.865,6.427,2.899,13.286,3.069,19.887
				c0.218,8.473-1.225,17.235-5.381,24.719c-3.158,5.682-8.331,11.172-15.405,10.437c-4.036-0.419-8.041-1.302-11.708-3.088
				c-3.388-1.65-5.873-4.776-9.347-6.233c2.626,6.02,10.123,8.027,12.748,14.054c0.06,0.135,0.056,0.347-0.109,0.415
				c-3.881,1.645-8.461,2.737-12.691,2.203c-3.709-0.468-7.28-1.743-10.999-2.078c0.597,0.195,1.198,0.383,1.806,0.554
				c2.761,0.776,5.632,1.352,8.53,1.684c0.171-0.026,0.343-0.049,0.515-0.075c0.163-0.028,0.223,0.043,0.221,0.155
				c2.565,0.254,5.143,0.316,7.677,0.144c2.912-0.195,5.871-0.484,8.719-1.141c1.703-0.392,3.333-0.623,4.891-1.175
				c-2.394-0.418-4.752-1.778-6.815-2.915c-1.661-0.917-3.313-1.876-4.705-3.138c1.009,0.441,2.015,0.889,3.026,1.311
				c0.721,0.418,1.461,0.809,2.199,1.184c2.375,1.207,5.171,2.751,7.934,2.821c0.221-0.125,0.441-0.256,0.658-0.401
				c0.335-0.226,0.419,0.1,0.319,0.365c5.903-0.521,9.626-4.926,12.853-9.473c1.309-1.842,2.503-3.827,3.584-5.887
				c0.886-2.398,1.794-4.783,2.44-7.274c0.938-3.619,1.576-7.332,1.751-11.07C244.558,169.982,243.433,162.531,240.588,155.766z"/>
			<path style="fill:#DADBDD;" d="M210.83,206.814c-0.416-0.297-0.817-0.611-1.201-0.947c-0.142-0.032-0.285-0.064-0.427-0.099
				C209.751,206.107,210.292,206.458,210.83,206.814z"/>
			<path style="fill:#DADBDD;" d="M211.83,207.49c0.673,0.464,1.335,0.936,1.984,1.419c1.309,0.978,3.056,2.167,4.327,3.594
				c0.968-0.201,1.912-0.413,2.83-0.739c-2.394-0.418-4.752-1.778-6.815-2.915C213.369,208.415,212.584,207.97,211.83,207.49z"/>
			<g>
				<g>
					<path style="fill:#B8BABC;" d="M109.726,67.475c0.092,0.401,0.214,0.8,0.35,1.195c-0.191-1.627-0.137-3.294,0.168-4.886
						c0.036-0.269,0.08-0.542,0.141-0.818c0.136-0.625,0.36-1.249,0.642-1.86c-0.005,0.047-0.009,0.095-0.012,0.14
						c0.151-0.345,0.319-0.684,0.498-1.015c-0.002-0.021-0.002-0.044-0.004-0.064c0.176-0.313,0.367-0.62,0.566-0.917
						c0.064-0.108,0.129-0.215,0.194-0.32c0.502-0.813,0.889-1.728,1.515-2.448c-0.002,0-0.003-0.002-0.004-0.002
						c-0.027,0.002-0.054,0.004-0.081,0.004c-0.069,0.006-0.12,0.059-0.153,0.131c-0.867,0.608-1.615,1.536-2.227,2.569
						c-0.289-1.092-0.807-2.108-1.399-3.198c-0.021-0.04-0.044-0.059-0.064-0.07c-1.356-2.756-3.15-5.128-5.838-6.883
						c-3.213-2.095-6.206,0.229-7.555,3.249c-2.623,5.864,0.305,13.715,5.175,17.716c0.113,0.099,0.229,0.189,0.347,0.273
						c0.208,0.161,0.418,0.316,0.633,0.462c0.051,0.034,0.094,0.016,0.126-0.028c0.67,0.284,1.434,0.365,2.351,0.191
						c1.833-0.349,3.635-1.606,4.536-3.234C109.662,67.598,109.692,67.537,109.726,67.475z"/>
					<path style="fill:#FFFFFF;" d="M100.775,68.482c-1.48-1.681-2.571-3.717-3.477-5.754c-1.429-3.205-1.662-6.621-0.361-9.91
						c0.709-1.79,1.94-3.118,3.849-3.556c1.48-0.337,2.791,0.54,3.922,1.364c2.684,1.953,4.418,4.745,5.772,7.712
						c0.036,0.08,0.076,0.106,0.114,0.1c0.167,0.443,0.302,0.893,0.382,1.354c-0.505,0.963-0.896,1.971-1.156,2.858
						c-0.367,1.252-0.434,2.512-0.279,3.753C107.607,69.61,103.803,71.292,100.775,68.482z"/>
					<path style="fill:#B8BABC;" d="M100.797,46.311c-3.568-0.073-5.961,3.736-6.672,6.81c-0.412,1.776-0.218,3.677,0.064,5.456
						c0.255,1.614,0.464,3.477,1.375,4.873c0.001,0.004,0.004,0.009,0.006,0.013c0.003,0.006,0.006,0.008,0.009,0.012
						c0.005,0.008,0.01,0.017,0.015,0.024l0.001-0.002c0.114,0.143,0.242-0.188,0.185-0.32c-1.133-2.574-1.487-6.069-1.25-8.856
						c0.143-1.687,0.837-3.236,1.852-4.568c1.187-1.559,2.66-2.086,4.417-2.707C101.03,46.963,101.1,46.316,100.797,46.311z"/>
					<g>
						<defs>
							<path id="SVGID_1_" d="M100.775,68.482c-1.48-1.681-2.571-3.717-3.477-5.754c-1.429-3.205-1.662-6.621-0.361-9.91
								c0.709-1.79,1.94-3.118,3.849-3.556c1.48-0.337,2.791,0.54,3.922,1.364c2.684,1.953,4.418,4.745,5.772,7.712
								c0.036,0.08,0.076,0.106,0.114,0.1c0.167,0.443,0.302,0.893,0.382,1.354c-0.505,0.963-0.896,1.971-1.156,2.858
								c-0.367,1.252-0.434,2.512-0.279,3.753C107.607,69.61,103.803,71.292,100.775,68.482z"/>
						</defs>
						<clipPath id="SVGID_00000028304988650020383220000006692642437474865070_">
							<use xlink:href="#SVGID_1_"  style="overflow:visible;"/>
						</clipPath>
						<g style="clip-path:url(#SVGID_00000028304988650020383220000006692642437474865070_);">
							<path style="fill:#0070B9;" d="M110.511,57.474c2.221,3.247,1.391,7.685-1.859,9.906c-3.247,2.223-7.684,1.389-9.904-1.858
								c-2.222-3.247-1.391-7.683,1.856-9.904C103.854,53.395,108.288,54.227,110.511,57.474z"/>
							<path style="fill:#11284B;" d="M107.999,59.191c1.175,1.721,0.736,4.073-0.985,5.25c-1.721,1.179-4.072,0.733-5.248-0.985
								c-1.178-1.722-0.738-4.069,0.984-5.245C104.471,57.032,106.82,57.47,107.999,59.191z"/>
							<path style="fill:#FFFFFF;" d="M102.805,58.883c0.545,0.796,0.341,1.882-0.454,2.425c-0.795,0.544-1.879,0.342-2.425-0.456
								c-0.543-0.796-0.34-1.882,0.455-2.423C101.176,57.885,102.261,58.087,102.805,58.883z"/>
						</g>
					</g>
				</g>
				<g>
					<path style="fill:#775121;" d="M104.204,73.361c-2.36-4.526-7.487-1.715-10.872,0.924c-1.095-2.83-2.055-5.694-3.095-8.546
						c-0.912-2.501-3.416-3.771-5.938-3.469c-1.339,0.161-2.512,1.417-3.589,2.099c-1.522,0.963-3.184,1.844-4.765,2.706
						c-2.381,1.302-4.626,0.267-6.316-1.535c-0.916-0.978-1.411-2.939-2.587-3.602c-2.032-1.14-3.63,1.787-4.486,3.218
						c-1.077,1.796-1.988,3.691-2.889,5.591c-0.031,0.024-0.062,0.057-0.088,0.105c-3.247,6.016-7.419,11.119-12.693,15.469
						c-5.129,4.229-10.837,7.721-16.605,11.002c-5.853,3.33-11.999,6.115-17.71,9.704c-2.603,1.637-6.678,3.508-7.152,6.939
						c-0.245,1.79,1.33,3.19,2.582,4.194c2.342,1.877,5.195,3.037,8.034,3.929c5.927,1.861,12.251,2.088,18.381,1.358
						c2.032-0.244,4.042-0.603,6.031-1.06c0.016,0.097,0.078,0.163,0.213,0.146c0.118-0.017,0.228-0.13,0.301-0.267
						c1.135-0.271,2.264-0.572,3.385-0.902c-0.009,0.01-0.015,0.02-0.023,0.03c0.185-0.063,0.373-0.117,0.56-0.176
						c0.185-0.06,0.372-0.121,0.558-0.182c0.002-0.002,0.005-0.006,0.006-0.01c0.238-0.074,0.473-0.153,0.708-0.231
						c2.959-0.569,6.139,0.074,9.109,0.175c3.722,0.127,7.24,1.967,10.847,2.792c6.564,1.507,13.18,1.601,18.516-2.982
						c2.194-1.885,3.597-4.718,4.921-7.227c1.602-3.035,2.591-6.36,3.463-9.668c0.456-1.735,0.742-3.523,1.358-5.21
						c0.669-1.824,1.541-3.594,2.378-5.347c0.951-1.991,2.251-3.747,3.427-5.579c0.919-1.695,1.88-3.366,2.793-5.066
						c0.181-0.506,0.352-1.015,0.508-1.528C104.225,78.687,105.488,75.822,104.204,73.361z"/>
					<path style="fill:#EA984F;" d="M102.245,82.648c-0.148,0.42-0.312,0.837-0.476,1.254c-0.092,0.053-0.18,0.139-0.234,0.252
						c-1.405,2.957-3.529,5.434-5.078,8.31c-1.383,2.566-2.839,5.473-3.462,8.332c-1.461,6.712-3.639,14.977-9.069,19.645
						c-5.826,5.007-14.398,3.421-21.117,1.356c-1.383-0.425-2.717-0.972-4.111-1.36c-1.775-0.496-3.65-0.398-5.473-0.468
						c-1.49-0.054-2.984-0.167-4.451-0.091c0.293-0.106,0.59-0.209,0.892-0.306c0.003-0.006,0.007-0.011,0.011-0.017
						c0.068-0.025,0.134-0.054,0.202-0.082c5.205-0.873,10.499-1.091,15.766-1.514c5.456-0.438,10.592-2.929,14.734-6.441
						c3.938-3.338,6.248-7.778,8.241-12.445c1.824-4.269,3.914-8.434,5.803-12.678c0.837-1.169,1.524-2.408,1.863-3.721
						c0.216,0.244,0.387,0.633,0.492,0.774c0.219,0.296,0.489,0.465,0.828,0.536c-0.082-0.879-0.34-1.766-0.778-2.479
						c-0.134-0.131-0.294-0.216-0.496-0.186c-0.555,0.083-1.007,0.543-1.389,0.924c-0.063,0.063-0.128,0.123-0.191,0.188
						c-0.055,0.064-0.111,0.129-0.165,0.191c-0.307,0.364-1.113,1.243-1.138,1.902c0.683-0.579,1.34-1.189,2.026-1.762
						c-0.475,1.023-0.959,2.042-1.455,3.056c-1.515,2.215-3.508,4.186-5.243,6.085c-3.013,3.297-6.432,6.148-9.844,9.003
						c-3.284,2.751-6.716,5.391-10.359,7.658c-2.274,1.417-4.397,3.003-6.616,4.46c0.008-0.044,0.012-0.088,0.02-0.133
						c-10.349,5.539-21.661,9.9-33.48,9.914c-6.394,0.008-13.32-1.3-18.792-4.734c-1.397-0.877-2.94-1.999-3.474-3.632
						c-0.517-1.576,1.072-2.935,2.139-3.789c2.084-1.667,4.613-3.023,6.917-4.345c5.8-3.326,11.882-6.142,17.661-9.51
						c5.379-3.138,10.578-6.594,15.339-10.615c3.358-2.838,5.994-6.023,8.287-9.537c0.401-0.739,0.807-1.475,1.285-2.168
						c0.849-1.233,1.64-2.502,2.427-3.777c0.574-1.104,1.145-2.213,1.723-3.317c0.629-1.199,2.857-6.165,4.792-4.02
						c0.962,1.065,1.453,2.469,2.452,3.543c4.821,5.186,10.178-1.887,14.808-3.501c1.851-0.645,3.748,0.822,4.771,2.173
						c1.081,1.427,1.168,3.456,1.846,5.07c0.6,1.427,1.123,2.935,1.698,4.416c-0.454,0.383-0.857,0.744-1.194,1.061
						c-0.051,0.048-0.09,0.119-0.117,0.197c1.923-1.425,3.934-2.8,6.167-3.678c0.039-0.015,0.074-0.015,0.108-0.011
						c2.248-0.868,4.518-0.814,6.167,1.532C104.927,76.18,102.964,80.611,102.245,82.648z"/>
					<path style="fill:#FEDA5B;" d="M14.764,109.138c6.869-3.742,14.256-6.722,20.837-10.964c5.987-3.861,11.968-8.338,16.003-14.3
						c0.655-0.969,1.27-1.957,1.851-2.963c-1.531,1.869-3.225,3.63-5.167,5.271c-4.761,4.021-9.959,7.478-15.339,10.615
						c-5.779,3.368-11.861,6.184-17.661,9.51c-2.304,1.321-4.833,2.678-6.917,4.345c-1.066,0.854-2.655,2.213-2.139,3.789
						c0.24,0.74,0.689,1.373,1.238,1.929C8.534,113.199,11.613,110.855,14.764,109.138z"/>
					<path style="opacity:0.3;fill:#775121;" d="M71.146,79.954c-1.289,1.226-2.299,2.679-3.238,4.187
						c-0.721,1.158-2.878,4.147-2.166,5.646c0.893,1.883,8.443-5.758,9.29-6.65c1.364-1.436,2.16-2.525,2.383-4.606
						c0.13-1.207,0.137-2.598,0.474-3.837c-0.019,0.016-0.039,0.031-0.056,0.044C75.617,76.481,73.196,78.007,71.146,79.954z"/>
					<path style="fill:#FCCA33;" d="M103.508,74.164c-1.65-2.347-3.919-2.4-6.167-1.532c-0.034-0.004-0.069-0.004-0.108,0.011
						c-2.233,0.878-4.244,2.253-6.167,3.678c0.027-0.078,0.065-0.149,0.117-0.197c0.337-0.316,0.741-0.678,1.194-1.061
						c-0.576-1.481-1.099-2.989-1.698-4.416c-0.678-1.614-0.765-3.644-1.846-5.07c-1.024-1.351-2.92-2.817-4.771-2.173
						c-4.629,1.614-9.987,8.686-14.808,3.501c-0.717-0.772-1.175-1.713-1.731-2.576c-0.15,1.443-0.599,2.991-0.619,4.118
						c-0.025,1.503,0.145,3.378,1.603,4.227c1.462,0.853,3.221,0.969,4.761,0.256c2.134-0.988,3.736-2.705,5.644-4.031
						c1.559-1.086,3.313-1.974,5.26-1.616c1.515,0.278,2.239,2.098,2.538,3.4c1.163,5.062,0.177,9.447-2.349,13.758
						c4.469-2.328,8.041-6.068,12.53-8.393c0.307-0.159,0.608,0.206,0.493,0.492c-1.291,3.229-3.281,6.104-5.577,8.7
						c-13.289,15.02-30.05,26.883-49.648,31.891c-4.701,1.199-9.537,2.123-14.391,2.379c-3.88,0.205-8.076,0.129-11.699-1.445
						c-3.213-1.398-6.528-4.011-5.76-7.9c0.08-0.399,0.212-0.782,0.38-1.151c-0.806,0.515-1.589,1.059-2.317,1.641
						c-1.066,0.854-2.655,2.213-2.139,3.789c0.533,1.633,2.077,2.755,3.474,3.632c5.472,3.434,12.398,4.742,18.792,4.734
						c11.819-0.014,23.131-4.375,33.48-9.914c-0.008,0.045-0.012,0.089-0.02,0.133c2.218-1.457,4.341-3.043,6.616-4.46
						c3.643-2.268,7.075-4.907,10.359-7.658c3.412-2.855,6.831-5.706,9.844-9.003c1.735-1.899,3.729-3.87,5.243-6.085
						c0.496-1.014,0.98-2.032,1.455-3.056c-0.686,0.572-1.343,1.183-2.026,1.762c0.025-0.659,0.831-1.538,1.138-1.902
						c0.054-0.063,0.11-0.127,0.165-0.191c0.063-0.064,0.128-0.125,0.191-0.188c0.382-0.381,0.833-0.841,1.389-0.924
						c0.202-0.03,0.362,0.055,0.496,0.186c0.438,0.714,0.695,1.601,0.778,2.479c-0.339-0.071-0.609-0.24-0.828-0.536
						c-0.104-0.142-0.276-0.53-0.492-0.774c-0.339,1.313-1.026,2.552-1.863,3.721c-1.889,4.244-3.979,8.408-5.803,12.678
						c-1.993,4.667-4.303,9.108-8.241,12.445c-4.142,3.513-9.278,6.004-14.734,6.441c-5.267,0.423-10.561,0.641-15.766,1.514
						c-0.067,0.028-0.133,0.058-0.202,0.082c-0.004,0.006-0.008,0.011-0.011,0.017c-0.301,0.097-0.598,0.199-0.892,0.306
						c1.467-0.076,2.961,0.037,4.451,0.091c1.823,0.069,3.697-0.028,5.473,0.468c0.521,0.146,1.034,0.314,1.545,0.49
						c3.631-0.393,7.23-1.258,10.597-2.352c3.356-1.094,6.675-2.42,9.55-4.505c2.752-1.997,5.088-4.422,7.294-6.997
						c0.248-0.29,0.704-0.103,0.671,0.278c-0.345,3.948-1.298,8.007-2.98,11.661c4.379-4.801,6.298-12.141,7.62-18.216
						c0.623-2.859,2.079-5.766,3.462-8.332c1.549-2.876,3.673-5.353,5.078-8.31c0.054-0.113,0.142-0.199,0.234-0.252
						c0.164-0.417,0.327-0.834,0.476-1.254C102.964,80.611,104.927,76.18,103.508,74.164z"/>
					<path style="opacity:0.3;fill:#775121;" d="M103.508,74.164c-1.65-2.347-3.919-2.4-6.167-1.532
						c-0.034-0.004-0.069-0.004-0.108,0.011c-2.233,0.878-4.244,2.253-6.167,3.678c0.027-0.078,0.065-0.149,0.117-0.197
						c0.337-0.316,0.741-0.678,1.194-1.061c-0.576-1.481-1.099-2.989-1.698-4.416c-0.678-1.614-0.765-3.644-1.846-5.07
						c-0.551-0.728-1.354-1.483-2.267-1.931c0.771,1.562,1.354,3.221,1.795,4.843c0.834,3.062,1.384,6.326,0.897,9.489
						c3.313-1.682,11.908-7.236,12.281-0.871c0.131,2.249-0.663,4.49-1.477,6.554c-1.038,2.629-2.141,5.232-3.101,7.893
						c-0.008,0.023-0.016,0.045-0.024,0.067c1.486-2.525,3.332-4.804,4.598-7.466c0.054-0.113,0.142-0.199,0.234-0.252
						c0.164-0.417,0.327-0.834,0.476-1.254C102.964,80.611,104.927,76.18,103.508,74.164z"/>
					<path style="fill:#F3A099;" d="M52.803,118.286c3.074-1.308,6.085-2.779,9.025-4.359c0.005-0.04,0.012-0.078,0.017-0.115
						c2.488-1.438,4.786-3.102,7.314-4.644c3.971-2.424,7.529-5.453,11.128-8.374c3.541-2.872,6.832-6.076,9.872-9.48
						c0.769-0.862,1.653-1.778,2.511-2.749c-1.258,2.541-2.516,5.083-3.658,7.685c-2.343,5.345-4.425,10.414-8.858,14.411
						c-4.439,4.002-10.07,5.917-15.936,6.347c-2.794,0.207-5.472,0.322-8.236,0.82C54.917,118.019,53.858,118.146,52.803,118.286z"
						/>
					<path style="fill:#F3A099;" d="M90.159,91.313c-3.04,3.404-6.331,6.608-9.872,9.48c-3.6,2.921-7.158,5.95-11.128,8.374
						c-2.528,1.542-4.826,3.205-7.314,4.644c-0.005,0.037-0.012,0.075-0.017,0.115c-2.94,1.58-5.952,3.052-9.025,4.359
						c1.055-0.141,2.114-0.268,3.179-0.459c2.188-0.394,4.325-0.549,6.506-0.698c2.506-2.742,5.619-4.968,8.574-7.154
						c3.594-2.662,7.394-6.769,12.203-6.703c0.156,0.004,0.316,0.175,0.322,0.324c0.059,1.354-0.224,2.751-0.704,4.125
						c2.679-3.422,4.329-7.364,6.129-11.472c1.142-2.602,2.399-5.144,3.658-7.685C91.812,89.535,90.928,90.451,90.159,91.313z"/>
					<path style="fill:#3A1400;" d="M80.142,73.348c-2.503,1.353-4.649,3.368-6.597,5.42c-0.962,1.016-3.897,3.573-3.359,5.212
						c0.028,0.088,0.098,0.209,0.211,0.203c4.275-0.206,5.875-5.992,8.069-8.705c0.083-0.103,0.13-0.222,0.151-0.338
						c0.527-0.414,1.056-0.825,1.588-1.228C80.391,73.772,80.516,73.146,80.142,73.348z"/>
				</g>
			</g>
		</g>
		<g>
			<path style="fill:#337A69;" d="M137.285,99.32c-0.134-0.368-0.728,0.254-0.638,0.563c1.255,4.299,0.977,8.542,0.25,12.892
				c-0.103,0.614,0.685,0.114,0.796-0.182C139.255,108.438,138.783,103.42,137.285,99.32z"/>
			<path style="fill:#337A69;" d="M135.863,107.594c-0.063-0.508-0.79,0.115-0.764,0.468c0.121,1.608,0.074,3.215-0.108,4.813
				c-0.059,0.51,0.547,0.186,0.675-0.057C136.442,111.351,136.058,109.174,135.863,107.594z"/>
			<path style="fill:#337A69;" d="M111.631,128.029c0.077-2.021,0.449-4.088,0.911-6.053c0.001-0.004,0.001-0.006,0.002-0.01
				c-0.531,0.624-0.967,1.346-1.318,2.132c-0.451,1.59-0.8,3.213-0.93,4.857c-0.115,1.469,0.061,3.916,1.43,4.789
				c0.518,0.33,1.111-0.559,0.966-1.012C112.169,131.091,111.563,129.824,111.631,128.029z"/>
			<path style="fill:#337A69;" d="M115.584,134.859c-0.876-2.366-1.735-4.598-1.379-7.191c0.093-0.677-0.784-0.076-0.866,0.311
				c-0.491,2.3-0.419,6.015,1.424,7.739C115.142,136.072,115.711,135.206,115.584,134.859z"/>
			<path style="fill:#337A69;" d="M118.692,134.932c-0.309-0.37-0.68-0.652-0.942-1.064c-0.269-0.427-0.441-0.914-0.582-1.393
				c-0.133-0.459-0.966,0.28-0.881,0.655c0.213,0.941,0.652,2.535,1.787,2.707C118.477,135.897,118.984,135.284,118.692,134.932z"/>
			<path style="fill:#337A69;" d="M111.716,60.823c-0.106,0.303-0.206,0.608-0.295,0.919c-0.726,2.54-1.427,6.274,0.286,8.563
				c0.32,0.429,0.943-0.221,0.961-0.589c0.217-4.507-0.439-9.543,2.95-13.099c-0.39,0.129-0.763,0.238-1.074,0.343
				C113.37,58.072,112.433,59.385,111.716,60.823z"/>
		</g>
		<g>
			<path style="opacity:0.5;fill:#FFFFFF;" d="M191.176,177.861c-3.527-4.73-6.349-9.548-7.367-15.442
				c-0.053-0.309-0.463,0.078-0.452,0.276c0.333,5.885,3.39,11.474,7.085,15.936C190.698,178.936,191.403,178.167,191.176,177.861z"
				/>
			<path style="opacity:0.5;fill:#FFFFFF;" d="M193.648,178.032c-1.357-1.616-2.611-3.267-3.559-5.157
				c-0.122-0.244-0.541,0.178-0.441,0.389c0.911,1.949,2.126,3.725,3.525,5.355C193.366,178.845,193.855,178.278,193.648,178.032z"
				/>
			<path style="opacity:0.5;fill:#FFFFFF;" d="M199.216,179.186c-2.229-2.342-4.476-4.666-5.861-7.629
				c-0.149-0.32-0.695,0.232-0.576,0.512c1.3,3.067,3.523,5.525,5.794,7.911C198.855,180.275,199.515,179.5,199.216,179.186z"/>
			<path style="opacity:0.5;fill:#FFFFFF;" d="M207.036,192.61c-7.405-3.037-16.155-7.093-20.046-14.582
				c-0.119-0.226-0.509,0.167-0.412,0.365c1.78,3.617,4.577,6.497,7.859,8.806c3.696,2.598,7.685,5.112,12.084,6.32
				C206.916,193.628,207.499,192.8,207.036,192.61z"/>
			<path style="opacity:0.5;fill:#FFFFFF;" d="M212.704,192.802c-3.122-1.032-5.947-2.542-8.471-4.664
				c-0.199-0.169-0.593,0.316-0.394,0.484c2.511,2.154,5.207,4.051,8.441,4.934C212.608,193.645,213.091,192.931,212.704,192.802z"
				/>
			<path style="opacity:0.5;fill:#FFFFFF;" d="M179.118,203.189c-3.318-0.807-6.27-2.004-9.148-3.874
				c-0.239-0.157-0.652,0.375-0.424,0.523c2.796,1.85,5.775,3.594,9.135,4.125C179.018,204.016,179.525,203.29,179.118,203.189z"/>
			<path style="opacity:0.5;fill:#FFFFFF;" d="M187.004,204.101c-3.763-1.407-7.524-2.105-10.95-4.363
				c-0.267-0.176-0.735,0.409-0.48,0.594c3.139,2.274,7.131,4.037,10.988,4.549C186.889,204.923,187.422,204.258,187.004,204.101z"
				/>
			<path style="opacity:0.5;fill:#FFFFFF;" d="M169.63,208.796c-4.791-2.156-10.311-4.066-13.815-8.24
				c-0.169-0.202-0.638,0.31-0.486,0.51c1.622,2.134,3.863,3.602,6.067,5.076c2.296,1.536,5.078,2.921,7.804,3.413
				C169.528,209.614,170.023,208.972,169.63,208.796z"/>
			<path style="opacity:0.5;fill:#FFFFFF;" d="M176.225,209.881c-3.611-1.684-7.12-3.171-10.357-5.551
				c-0.238-0.176-0.678,0.375-0.444,0.55c3.11,2.318,6.6,4.747,10.438,5.646C176.142,210.59,176.549,210.032,176.225,209.881z"/>
			<path style="opacity:0.5;fill:#FFFFFF;" d="M218.34,179.931c-0.774-3.132-2.436-5.943-4.111-8.672
				c-1.779-2.895-3.78-5.573-5.991-8.152c-0.155-0.182-0.577,0.281-0.438,0.459c4.049,5.155,7.495,10.755,9.834,16.89
				C217.777,180.828,218.411,180.219,218.34,179.931z"/>
			<path style="opacity:0.5;fill:#FFFFFF;" d="M215.874,178.518c-0.975-1.83-2.166-3.525-3.341-5.23
				c-0.193-0.284-0.695,0.237-0.54,0.477c1.124,1.743,2.212,3.507,3.287,5.28C215.474,179.366,216.02,178.796,215.874,178.518z"/>
		</g>
	</g>
	<g>
		<path style="fill:#B8BABC;" d="M354.145,7.299c-0.25-1.124-1.904-0.574-2.52-0.457c-2.357,0.453-4.597,1.324-6.926,1.914
			c-3.663,0.923-7.281,2.063-10.886,3.239c-1.764,0.576-3.524,1.173-5.285,1.762c0.852-0.661,1.691-1.343,2.515-2.048
			c0.563-0.481,6.884-5.702,5.707-7.03c-0.573-0.65-1.783-0.177-2.454,0.008c-2.047,0.555-4.102,1.074-6.159,1.601
			c-4.615,1.177-9.184,2.574-13.715,4.115c-4.35,1.478-8.645,3.147-12.919,4.892c1.107-0.896,2.207-1.811,3.325-2.69
			c0.1-0.078,0.202-0.153,0.306-0.23c0.693-0.778,1.431-1.641,1.734-2.686c-0.044-0.009-0.096-0.004-0.161,0.024
			c-2.081,0.942-4.271,1.648-6.386,2.495c-2.398,0.961-4.808,1.81-7.273,2.517c-4.819,1.381-9.695,2.601-14.552,3.791
			c-4.443,1.089-8.949,2.313-13.29,3.846c-2.314,0.816-4.617,1.673-6.882,2.656c-2.266,0.983-4.641,1.612-6.916,2.572
			c-2.687,1.131-5.346,2.37-7.987,3.66c-7.157,3.291-14.226,6.896-21.002,11.095c-7.686,4.763-15.696,10.636-21.311,18.423
			c-2.887,4.005-4.809,8.728-6.799,13.354c-2.118,4.926-3.895,9.977-5.682,15.065c-3.306,9.41-7.237,18.571-10.366,28.067
			c-0.479,1.149-0.968,2.302-1.408,3.478c-1.06,2.831-1.84,5.813-2.461,8.807c-0.487,2.343-1.539,6.561-0.794,9.463
			c0.255-3.878,0.754-8.046,3.291-11.055c0.131-0.157,0.381-0.095,0.478,0.061c1.092,1.755,1.503,3.755,2.189,5.678
			c0.735,2.061,1.879,4.14,3.372,5.784c-0.188-2.393-0.871-4.763-0.403-7.163c0.056-0.286,0.414-0.26,0.555-0.072
			c5.576,7.442,16.143,10.35,25.111,8.937c-2.508-1.145-4.949-2.411-7.245-3.95c-0.248-0.164-0.161-0.561,0.152-0.566
			c4.489-0.068,8.884,0.654,13.357,0.536c4.052-0.871,8.007-2.31,11.742-4.312c2.225-1.195,4.296-2.664,6.417-4.071
			c0.93-0.618,2.704-1.338,2.337-2.785c2.392-0.396,4.864-2.042,7.011-3.145c2.748-1.412,5.517-2.908,8.063-4.756
			c1.04-0.754,2.124-1.407,3.107-2.266c0.618-0.542,1.938-1.493,2.155-2.463c0.479-2.134-1.761-1.818-3.041-1.381
			c0.229-0.243,0.456-0.489,0.678-0.749c0.08-0.093,0.156-0.188,0.23-0.284c-0.052,0.122-0.05,0.241,0.106,0.199
			c3.906-1.048,7.674-3.926,11.072-6.262c3.404-2.341,7.286-4.753,10.063-8.059c0.312-0.372,1.398-1.791,1.015-2.435
			c-0.655-1.099-2.022-1.008-3.066-1.006c-4.114,0.005-8.325,1.538-12.247,2.798c-0.046,0.015-0.091,0.07-0.119,0.131
			c0.039-0.104,0.074-0.209,0.104-0.313c1.298-0.588,2.461-1.546,3.662-2.352c1.738-1.165,3.448-2.398,5.169-3.598
			c3.477-2.421,6.883-4.92,10.198-7.623c1.482-1.209,2.83-2.531,4.161-3.946c1.105-1.177,2.197-2.293,2.919-3.843
			c0.733-1.568-0.139-2.03-1.246-2.076c0.424-0.218,0.85-0.432,1.279-0.639c3.962-1.893,7.789-3.98,11.595-6.262
			c3.714-2.226,7.785-4.334,10.992-7.474c1.124-1.099,4.478-4.323,2.802-5.972c4.412-2.599,8.792-5.271,13.06-8.169
			c2.389-1.622,4.544-3.416,6.626-5.517c1.242-1.251,1.284-2.486-0.418-3.019c-3.197-1-6.553-0.432-9.833,0.542
			c2.795-1.572,5.574-3.183,8.324-4.842c8.025-4.843,15.537-10.99,21.801-18.535C352.203,11.471,354.581,9.256,354.145,7.299z"/>
		<path style="fill:#FFFFFF;" d="M253.234,112.254c0.307,0.034,0.614,0.068,0.921,0.103c0.697,0.803,0.68,1.441-0.047,1.919
			c-0.839,0.925-1.851,1.643-2.839,2.338c-1.845,1.302-3.721,2.539-5.682,3.6c-3.571,1.933-7.124,3.806-10.858,5.282
			c-0.753-1.253-2.693-0.935-4.13-0.597c4.925-2.113,9.774-4.488,14.371-7.366c2.385-1.493,4.667-2.95,6.702-4.938
			c0.019,0.042,0.063,0.063,0.143,0.032C252.272,112.434,252.745,112.309,253.234,112.254z"/>
		<path style="fill:#FFFFFF;" d="M260.059,96.537c3.081-0.818,6.172-1.59,9.312-2.046c1.43-0.209,3.06-0.499,4.479-0.116
			c2.427,0.655-2.295,4.394-2.826,4.839c-5.497,4.626-11.561,8.256-17.717,11.563c-0.007,0.004-0.014,0.009-0.021,0.015
			c1.014-1.451,1.183-3.146-1.071-3.227c-1.728-0.061-3.449,0.402-5.136,0.79c-0.866,0.197-1.73,0.402-2.593,0.61
			c1.689-0.994,3.357-2.025,4.994-3.09c2.531-1.652,4.994-3.424,7.257-5.528c0.997-0.929,2.636-2.41,3.236-3.988
			C259.931,96.459,259.938,96.569,260.059,96.537z"/>
		<path style="fill:#FFFFFF;" d="M285.576,73.333c1.499,0.424-1.782,3.969-2.136,4.306c-2.456,2.344-4.874,4.605-7.531,6.671
			c-2.608,2.023-5.327,3.888-8.027,5.748c-2.514,1.735-5.012,3.806-7.684,5.244c0.034-1.592-1.679-2.033-3.906-1.947
			c3.817-2.179,7.568-4.466,11.188-7.124c2.435-1.786,4.992-3.484,7.243-5.566c0.959-0.885,1.734-1.934,2.533-2.995
			c0.399-0.532,0.894-1.233,1.211-1.951c0.766-0.139,1.624-0.703,2.226-0.974c1.077-0.481,2.127-1.034,3.176-1.588
			C284.464,73.14,285.081,73.194,285.576,73.333z"/>
		<path style="fill:#FFFFFF;" d="M311.358,54.281c-0.4,0.853-0.953,1.51-1.554,2.188c-1.258,1.419-2.633,2.546-4.142,3.596
			c-3.081,2.143-6.325,4.019-9.535,5.896c-3.216,1.881-6.452,3.634-9.804,5.174c-1.121,0.514-2.211,1.104-3.308,1.681
			c-0.04,0.01-0.081,0.019-0.119,0.03c-0.04,0.008-0.083,0.046-0.12,0.095c-0.35,0.182-0.702,0.362-1.054,0.538
			c-0.177,0.087-2.16,0.83-2.956,1.235c0.172-1.431-1.191-1.129-2.192-0.907c3.74-2.279,7.421-4.695,10.905-7.421
			c0.549-0.431,3.494-2.531,5.613-4.693c5.344-1.371,10.277-4.64,15.124-7.455c0.965-0.561,1.93-1.125,2.893-1.69
			C311.691,53.004,311.827,53.283,311.358,54.281z"/>
		<path style="fill:#FFFFFF;" d="M329.488,36.011c0.575,0.125,1.276,0.28,1.779,0.627c0.897,0.621-0.692,1.87-0.973,2.139
			c-1.08,1.038-2.154,2.031-3.324,2.938c-2.053,1.592-4.268,2.948-6.429,4.335c-4.413,2.834-8.927,5.46-13.439,8.078
			c-4.264,2.474-8.534,5.087-13.138,6.611c1.286-1.53,1.913-2.97,0.704-3.737c-1.127-0.717-2.873-0.381-4.077-0.171
			c-1.237,0.22-2.47,0.554-3.706,0.877c1.517-0.915,3.001-1.903,4.491-2.872c2.283-1.479,4.539-2.856,6.454-4.946
			c0.376-0.409,1.534-1.622,1.37-2.352c1.271-0.628,2.54-1.262,3.805-1.895c5.378-2.692,10.735-5.491,16.03-8.428
			C322.487,36.134,326.061,35.258,329.488,36.011z"/>
		<path style="fill:#FFFFFF;" d="M353.413,8.474c-0.339,1.242-1.428,2.396-2.214,3.3c-3.29,3.773-6.713,7.268-10.413,10.515
			c-6.96,6.106-15.051,10.5-22.994,14.781c-1.26,0.735-2.543,1.417-3.84,2.076c-5.029,2.727-10.106,5.428-15.255,7.918
			c-0.067-0.023-0.138-0.044-0.221-0.06c-1.036-0.192-2.389,0.179-3.423,0.334c-1.464,0.224-2.912,0.553-4.381,0.738
			c-0.021,0.004-0.045,0.016-0.069,0.029c1.966-0.104,3.918-0.472,5.878-0.671c0.391-0.04,2.492-0.03,2.019,1.08
			c-0.198,0.462-0.64,0.825-1.116,1.125c-0.232,0.252-0.436,0.453-0.513,0.53c-0.976,0.976-2.096,1.758-3.211,2.501
			c-2.934,1.955-5.91,3.749-8.953,5.409c-0.516,0.327-1.036,0.649-1.558,0.97c-1.245,0.764-2.502,1.568-3.9,1.826
			c-1.122,0.538-2.245,1.068-3.372,1.588c-0.908-0.379-2.86-0.052-4.223,0.238c0.98-0.188,1.957-0.371,2.942-0.229
			c0.441,0.064,1.495,0.206,1.297,1.021c-0.171,0.717-0.767,1.281-1.424,1.747c-0.366,0.358-0.688,0.635-0.79,0.714
			c-3.261,2.535-6.791,4.585-10.348,6.521c-3.661,1.991-7.354,3.942-11.116,5.68c-1.832,1.016-3.652,2.058-5.528,2.963
			c-0.934,0.451-1.894,0.816-2.846,1.197c3.627-1.143,7.13-2.821,10.573-4.524c4.691-2.322,9.235-4.937,13.831-7.483
			c2.635-1.46,5.95-3.389,7.75-6.178c0.306-0.474,0.411-0.832,0.374-1.102c2.544-1.191,5.07-2.435,7.587-3.69
			c0.382-0.189,0.758-0.391,1.133-0.595c2.726-0.622,5.432-1.602,8.215-1.241c1.045,0.135,1.719,0.657,0.908,1.957
			c-0.371,0.597-0.813,1.127-1.29,1.618c-0.048,0.028-0.097,0.073-0.139,0.14c-0.693,0.691-1.456,1.306-2.199,1.889
			c-2.337,1.84-4.623,3.732-7.042,5.432c-2.774,1.948-5.649,3.757-8.554,5.496c-2.247,0.281-4.466,0.836-6.68,1.374
			c0.971-0.097,1.942-0.191,2.909-0.335c1.758-0.264,3.759-1.064,5.539-0.852c0.227,0.027,0.394,0.084,0.516,0.159
			c0.476,0.002,0.597,0.364,0.531,0.842c-0.032,0.068-0.053,0.138-0.053,0.198c0,0.027,0,0.054-0.001,0.078
			c-0.168,0.686-0.602,1.491-0.873,1.818c-0.916,1.11-1.746,2.221-2.794,3.186c-1.069,0.984-2.286,1.742-3.418,2.62
			c-2.293,1.778-4.642,3.503-7.032,5.105c-2.757,1.853-5.587,3.582-8.466,5.206c-3.385,0.341-7.396,1.546-8.348,1.749
			c-0.081,0.019-0.168,0.127-0.222,0.238c2.336-0.536,4.685-0.796,7.064-1.135c1.025-0.146,2.53-0.494,3.688-0.129
			c0.294,0.019,0.587,0.053,0.874,0.108c1.028,0.198,1.313,0.762,1.225,1.423c-0.017,0.009-0.035,0.017-0.052,0.026
			c-0.201,0.097-0.431,0.655-0.13,0.623c-0.239,0.582-0.656,1.179-1.038,1.633c-3.374,4.03-7.981,6.834-12.28,9.357
			c-1.328,0.78-2.664,1.542-4.007,2.285c-0.235,0.063-0.472,0.123-0.708,0.188c-2.899,0.797-5.772,1.724-8.635,2.687
			c1.764-0.467,3.542-0.856,5.311-1.302c0.816-0.242,1.632-0.483,2.452-0.711c-0.085,0.046-0.169,0.088-0.252,0.133
			c0.964-0.26,1.929-0.521,2.894-0.774c0.059-0.036,0.119-0.068,0.179-0.103c2.102-0.524,4.215-0.983,6.344-1.345
			c1-0.171,5.552-0.705,3.327,2.244c-1.049,1.391-2.373,2.517-3.704,3.524c-2.732,2.072-5.776,3.768-8.732,5.369
			c-4.322,2.344-8.826,4.354-13.365,6.176c-0.118,0.024-0.237,0.052-0.355,0.078c-1.854,0.851-3.708,1.697-5.559,2.556
			c-1.252,0.577-2.502,1.115-3.758,1.612c1.945-0.599,3.876-1.302,5.797-2.041c1.672-0.644,3.344-1.305,5.012-1.993
			c1.773-0.466,3.728-0.952,5.45-0.517c0.405,0.104,0.617,0.303,0.7,0.544c-0.008,0.051,0.002,0.091,0.029,0.117
			c0.099,0.576-0.427,1.332-0.887,1.642c-0.436,0.294-0.899,0.532-1.338,0.822c-0.864,0.568-1.715,1.167-2.574,1.745
			c-2.166,1.453-4.484,2.639-6.827,3.664c-3.463,1.516-7.271,2.625-11.161,3.222c-2.217,0.612-4.511,0.709-6.78,1.027
			c-0.204,0.028-0.408,0.059-0.615,0.089c2.038,0.006,4.077-0.14,6.092-0.385c0.24,0.191,0.482,0.381,0.725,0.57
			c1.342,1.05,3.152,2.046,4.119,3.581c0.289,0.458-4.425,1.5-4.898,1.584c-1.888,0.341-3.81,0.45-5.716,0.591
			c-3.8,0.282-7.612-0.393-11.319-1.292c-1.626-0.395-3.097-1.093-4.469-1.997c-0.74-0.439-1.423-0.989-2.145-1.502
			c-0.865-0.616-1.798-1.046-2.73-1.489c0.453,1.52,2.11,3.461,1.922,5.206c-0.795-0.358-1.497-1.153-2.157-1.719
			c-1.019-0.871-1.968-1.858-2.907-2.84c-1.74-1.82-2.961-3.858-3.485-6.446c0.012-0.273-0.019-0.512-0.128-0.677
			c-0.183-0.276-0.566,0.186-0.517,0.439c0.03,0.149,0.063,0.3,0.095,0.447c-0.011,0.722-0.603,1.915-0.752,2.398
			c-0.218,0.714-0.44,1.421-0.686,2.122c-0.001,0.004-1.093,2.798-1.292,1.206c-0.01-0.083-0.017-0.172-0.023-0.259
			c0.074-0.068,0.135-0.165,0.136-0.235c0.117-6.049,1.477-11.979,3.828-17.397c0.286-0.659,0.563-1.322,0.836-1.987
			c1.056-3.313,2.202-6.589,3.46-9.806c0.286-0.808,0.574-1.614,0.867-2.414c1.763-4.811,3.551-9.604,5.352-14.396
			c1.927-5.125,3.577-10.367,5.69-15.402c2.024-4.82,3.995-9.776,6.817-14.067c2.699-4.104,6.279-7.389,9.833-10.475
			c3.698-3.213,7.7-5.978,11.769-8.525c2.292-1.436,4.626-2.806,6.983-4.13c0.712-0.476,1.477-0.875,2.249-1.247
			c0.388-0.21,0.773-0.424,1.162-0.635c-0.123,0.086-0.244,0.177-0.366,0.264c0.65-0.299,1.29-0.593,1.891-0.905
			c2.354-1.226,4.749-2.336,7.163-3.397c2.525-1.24,5.069-2.433,7.639-3.55c9.405-4.098,19.118-7.567,28.963-9.983
			c4.737-1.161,9.468-2.394,14.18-3.684c2.478-0.681,4.896-1.525,7.306-2.465c2.013-0.786,4.086-1.493,6.085-2.344
			c-0.326,0.286-0.728,0.504-1.02,0.744c-0.737,0.61-1.512,1.156-2.25,1.766c-1.135,0.941-2.267,1.872-3.425,2.765
			c-0.037,0.015-0.073,0.03-0.11,0.043c-0.588,0.469-1.191,0.908-1.804,1.323c0.045-0.018,0.09-0.036,0.135-0.054
			c-3.128,2.227-6.414,4.206-9.735,6.018c-2.202,1.199-4.426,2.336-6.665,3.427c-3.565,1.135-7.17,2.139-10.791,3.011
			c-0.015-0.012-0.037-0.016-0.072-0.006c-0.064,0.019-0.129,0.036-0.194,0.055c2.621,0.145,5.229-0.818,7.758-1.519
			c1.653-0.458,3.3-0.901,4.934-1.447c1.238-0.413,2.608-1.129,3.913-1.03c0.009,0,0.017,0.006,0.026,0.008
			c0.317-0.052,0.637-0.163,0.952-0.227c1.067-0.216-0.227,1.199-0.325,1.304c-0.692,0.734-1.359,1.421-2.129,2.057
			c-2.413,1.993-5.054,3.615-7.746,5.049c-7.935,4.226-16.421,7.035-24.955,9.386c-0.826,0.275-1.653,0.546-2.479,0.828
			c-1.523,0.52-3.068,1.067-4.549,1.731c-0.747,0.336-1.482,0.685-2.251,0.9c-1.269,0.518-2.531,1.066-3.787,1.646
			c-3.778,1.744-7.55,3.614-11.028,6.059c-0.422,0.295-2.282,1.407-3.468,2.514c1.072-0.606,2.168-1.161,3.241-1.713
			c0.582-0.401,1.17-0.794,1.76-1.178c3.624-2.359,7.657-4.123,11.544-5.824c4.462-1.953,9.026-3.437,13.655-4.774
			c2.487-0.716,4.961-1.212,7.499-1.616c1.637-0.257,3.804-0.7,5.496-0.363c-0.609,1.254-2.763,2.334-3.69,2.989
			c-1.409,0.999-2.782,2.046-4.221,2.992c-2.981,1.957-6.022,3.79-9.003,5.747c-2.807,1.844-5.674,3.625-8.61,5.233
			c-0.049-0.012-0.103-0.02-0.162-0.024c-0.63-0.056-1.306,0.355-1.884,0.589c-1.425,0.58-2.912,0.881-4.355,1.396
			c-5.471,1.955-10.903,4.352-15.893,7.631c0.012-0.006,0.022-0.012,0.032-0.017c0.989-0.485,1.994-0.931,2.979-1.427
			c1.97-0.997,3.936-1.982,5.957-2.836c2.295-0.973,4.62-1.85,6.942-2.731c1.927-0.731,3.933-1.719,5.982-1.828
			c0.228-0.014,0.311,0.267,0.236,0.47c-0.034,0.091-0.078,0.176-0.12,0.262c-0.057,0.271-0.227,0.611-0.493,0.976
			c-0.986,1.341-2.02,2.262-3.229,3.319c-2.172,1.9-4.249,3.878-6.5,5.662c-2.198,1.737-4.443,3.396-6.711,5.01
			c-4.716,3.354-9.586,6.418-14.469,9.446c-0.29,0.178-0.377,0.883,0.068,0.625c5.79-3.367,11.433-7.063,16.904-11.068
			c2.73-1.998,5.401-4.104,8.015-6.297c1.023-0.856,1.954-1.882,2.955-2.777c1.098-0.983,2.275-1.813,3.157-3.071
			c0.327-0.464,1.289-2.014,1.097-2.828c2.961-1.614,5.846-3.412,8.69-5.28c3.295-2.162,6.672-4.164,9.941-6.381
			c1.595-1.082,3.14-2.27,4.685-3.442c0.942-0.716,2.202-1.417,2.504-2.769c0.032-0.141,0.061-0.374-0.112-0.417
			c-1.644-0.415-3.732-0.006-5.374,0.22c-0.384,0.053-0.765,0.115-1.145,0.176c0.234-0.083,0.469-0.166,0.703-0.25
			c6.24-2.239,12.498-4.676,18.244-8.29c2.2-1.385,4.263-2.969,6.122-4.883c0.242-0.248,2.544-2.641,1.213-2.979
			c-0.811-0.209-1.779,0.168-2.553,0.448c-0.125,0.044-0.251,0.084-0.376,0.129c1.223-0.651,2.438-1.314,3.643-1.991
			c3.688-2.068,7.321-4.362,10.733-6.982c0.049-0.038,0.097-0.076,0.146-0.116c3.306-1.333,6.616-2.646,9.958-3.855
			c4.079-1.474,8.194-2.816,12.342-4.021c3.864-1.126,7.861-1.798,11.682-3.062c0.552-0.183,1.117-0.292,1.69-0.328
			c1.172-0.074-0.58,1.679-0.863,1.995c-1.594,1.781-3.368,3.374-5.173,4.861c-0.49,0.403-0.986,0.796-1.487,1.179
			c-1.436,1.367-3.102,2.433-4.817,3.35c-1.538,0.974-3.103,1.887-4.686,2.749c-0.93,0.504-1.866,0.988-2.81,1.456
			c-0.628,0.093-1.253,0.195-1.867,0.345c-1.912,0.469-3.8,1.054-5.692,1.614c-1.211,0.362-2.41,0.754-3.61,1.147
			c1.618-0.453,3.229-0.936,4.831-1.308c3.298-0.761,6.811-1.991,10.198-1.839c0.185,0.007,0.301,0.191,0.264,0.396
			c-0.174,0.941-1.127,1.567-2.006,2.037c-0.421,0.392-0.85,0.773-1.295,1.135c-2.866,2.338-5.919,4.37-9.014,6.282
			c-6.42,3.969-13.045,7.705-19.782,10.916c-6.707,3.2-13.611,5.524-20.637,7.597c-0.218,0.063-0.485,0.756-0.148,0.683
			c7.836-1.715,15.494-4.871,22.802-8.482c7.394-3.654,14.78-7.83,21.72-12.507c2.653-1.789,5.15-3.771,7.527-5.989
			c0.589-0.547,1.33-1.18,1.554-2.052c0.191-0.746-0.518-0.798-0.972-0.665c-0.566,0.167-1.148,0.282-1.736,0.381
			c0.705-0.371,1.407-0.748,2.105-1.139c2.507-1.407,4.938-2.981,7.279-4.717c2.142-0.707,4.298-1.364,6.446-2.047
			c4.692-1.49,9.429-2.802,14.148-4.162c1.157-0.333,2.299-0.609,3.477-0.786C352.029,7.6,353.806,7.027,353.413,8.474z"/>
		<path style="fill:#B8BABC;" d="M217.911,61.829c-2.118,1.792-3.882,3.9-5.553,6.107c-1.68,2.217-3.445,4.405-4.961,6.737
			c-3.413,5.25-6.306,10.732-9.13,16.311c-5.756,11.367-9.833,23.621-12.868,35.977c-0.06,0.243,0.295,0.064,0.339-0.077
			c3.7-11.938,7.266-23.961,12.887-35.17c2.635-5.256,5.443-10.311,8.423-15.375c1.48-2.514,3.267-4.793,4.956-7.167
			c1.809-2.54,3.676-5.037,6.02-7.115C218.177,61.922,218.113,61.656,217.911,61.829z"/>
		<path style="opacity:0.5;fill:#C2C4C6;" d="M351.108,12.787c-4.647,4.598-10.132,8.455-15.611,12.044
			c-2.829,1.851-5.635,3.783-8.579,5.454c-3.36,1.902-6.848,3.554-10.372,5.127c-6.418,2.866-12.978,6.024-20.082,6.609
			c-0.323,0.026-0.384-0.411-0.153-0.564c4.371-2.912,8.8-5.736,13.086-8.771c3.75-2.656,7.261-5.593,10.916-8.372
			c5.22-3.969,10.974-7.883,15.34-12.913c-0.614,0.197-1.227,0.394-1.839,0.595c-1.764,0.576-3.524,1.173-5.285,1.762
			c0.852-0.661,1.691-1.343,2.515-2.048c0.407-0.349,3.831-3.179,5.244-5.221c-4.139,3.641-9.723,5.964-14.596,7.883
			c-3.956,1.558-7.845,3.261-11.794,4.835c-0.733,0.292-1.475,0.579-2.224,0.857c-3.594,1.766-7.172,3.558-10.666,5.517
			c4.764-0.985,9.616-4.111,14.448-2.493c0.223,0.076,0.29,0.333,0.133,0.51c-4.057,4.537-9.678,7.464-15.052,10.145
			c-6.262,3.123-12.45,6.334-19.017,8.785c-0.237,0.088-0.504-0.236-0.343-0.447c4.59-5.954,11.2-10.186,18.036-13.268
			c-1.722,0.321-3.451,0.53-5.172,0.004c-0.145-0.044-0.273-0.215-0.211-0.374c1.104-2.814,3.861-4.73,6.577-6.184
			c-0.019,0-0.038,0-0.058,0c-0.246-0.015-0.427-0.333-0.214-0.518c4.992-4.375,10.697-7.723,16.588-10.738
			c-3.772,1.326-7.504,2.779-11.221,4.295c1.107-0.896,2.207-1.811,3.325-2.69c0.1-0.078,0.202-0.153,0.306-0.23
			c0.693-0.778,1.431-1.641,1.734-2.686c-0.044-0.009-0.096-0.004-0.161,0.024c-2.081,0.942-4.271,1.648-6.386,2.495
			c-1.817,0.728-3.641,1.391-5.49,1.977c0.001,0.051-0.013,0.102-0.048,0.151c-3.907,5.648-11.31,7.79-17.342,10.307
			c-4.259,1.774-8.359,3.896-12.663,5.577c-0.001,0-0.003,0-0.006,0.002c2.007-0.411,4.23-0.804,6.289-0.494
			c2.905-0.349,5.802-0.82,8.698-1.326c0.264-0.046,0.556,0.295,0.295,0.508c-5.252,4.239-11.603,6.851-17.838,9.283
			c-7.029,2.741-14.132,5.19-21.229,7.744c-0.202,0.074-0.402,0.15-0.604,0.222c-0.669,0.463-1.395,0.844-2.146,1.167
			c-1.62,0.699-3.301,1.226-4.936,1.884c-1.997,0.803-3.939,1.816-5.833,2.84c-3.935,2.129-7.584,4.642-10.941,7.607
			c-6.399,5.649-11.785,12.439-15.937,19.894c-8.92,16.013-13.575,33.83-19.579,51.031c-0.1,0.286-0.487,0.289-0.586,0
			c-1.444-4.267-2.151-8.634-2.288-13.033c-0.44,1.054-0.883,2.109-1.286,3.185c-1.06,2.831-1.84,5.813-2.461,8.807
			c-0.53,2.552-1.736,7.329-0.557,10.205c0.257,0.097,0.613-0.113,1.107-0.807c0.902-1.271,1.211-3.098,1.7-4.591
			c0.065-0.2,0.183-0.524,0.295-0.887c0.557,2.058,1.385,3.819,2.815,5.443c1.031,1.169,2.126,2.321,3.287,3.317
			c0.826,0.709,1.65,1.695,2.692,1.939c0.257,0.061,0.454-0.245,0.546-0.474c0.377-0.944,0.137-1.817-0.194-2.736
			c-0.189-0.52-0.42-1.018-0.621-1.53c0.963,0.891,1.953,1.733,3.029,2.465c1.672,1.135,3.509,1.682,5.395,2.133
			c4.416,1.056,8.747,1.232,13.232,0.828c2.303-0.207,4.539-0.705,6.8-1.222c0.889-0.203,1.678-0.529,1.945-1.567
			c0.316-1.235-1.89-2.483-2.526-2.982c-0.578-0.453-1.152-0.908-1.723-1.366c5.042-0.75,9.978-2.358,14.582-4.829
			c2.225-1.195,4.296-2.664,6.417-4.071c0.93-0.618,2.704-1.338,2.337-2.785c2.392-0.396,4.864-2.042,7.011-3.145
			c2.748-1.412,5.517-2.908,8.063-4.756c1.04-0.754,2.124-1.407,3.107-2.266c0.618-0.542,1.938-1.493,2.155-2.463
			c0.479-2.134-1.761-1.818-3.041-1.381c0.229-0.243,0.456-0.489,0.678-0.749c0.08-0.093,0.156-0.188,0.23-0.284
			c-0.052,0.122-0.05,0.241,0.106,0.199c3.906-1.048,7.674-3.926,11.072-6.262c2.53-1.74,5.324-3.521,7.732-5.678
			c-0.369,0.148-0.728,0.292-1.074,0.433c-2.598,1.063-5.068,2.302-7.59,3.527c-2.368,1.149-4.87,2.275-7.555,2.237
			c-0.18-0.002-0.369-0.195-0.292-0.385c1.692-4.213,5.878-7.066,9.722-9.156c1.56-0.849,3.165-1.625,4.802-2.332
			c-3.379,0.413-6.776,1.624-9.979,2.652c-0.046,0.015-0.091,0.07-0.119,0.131c0.039-0.104,0.074-0.209,0.104-0.313
			c1.298-0.588,2.461-1.546,3.662-2.352c1.738-1.165,3.448-2.398,5.169-3.598c3.477-2.421,6.883-4.92,10.198-7.623
			c1.482-1.209,2.83-2.531,4.161-3.946c1.105-1.177,2.197-2.293,2.919-3.843c0.733-1.568-0.139-2.03-1.246-2.076
			c0.424-0.218,0.85-0.432,1.279-0.639c3.962-1.893,7.789-3.98,11.595-6.262c3.714-2.226,7.785-4.334,10.992-7.474
			c1.124-1.099,4.478-4.323,2.802-5.972c4.412-2.599,8.792-5.271,13.06-8.169c2.064-1.402,3.953-2.933,5.771-4.678
			c-2.132,1.506-4.38,2.838-6.798,3.874c-3.905,1.675-7.926,3.094-11.848,4.738c-1.907,0.8-3.809,1.608-5.715,2.41
			c-1.494,0.631-3.004,1.22-4.649,1.023c-0.249-0.03-0.422-0.316-0.215-0.52c4.569-4.482,10.384-7.54,16.033-10.435
			c3.059-1.571,6.237-2.962,9.238-4.64c0.474-0.266,0.944-0.542,1.412-0.819c-2.268-0.101-4.579,0.376-6.853,1.052
			c2.795-1.572,5.574-3.183,8.324-4.842C337.369,26.418,344.857,20.295,351.108,12.787z M217.535,67.615
			c0.832-1.086,1.725-2.116,2.652-3.119c3.535-5.337,9.425-9.068,15.068-11.825c6.963-3.402,14.409-5.704,22.052-6.961
			c0.229-0.037,0.519,0.207,0.343,0.445c-4.238,5.748-10.864,9.134-17.219,12.023c-3.583,1.625-7.218,3.141-10.772,4.827
			c-3.866,1.834-7.697,3.747-11.781,5.057C217.641,68.138,217.369,67.833,217.535,67.615z M206.021,84.999
			c0.668-2.188,1.89-4.132,3.262-5.948c1.31-1.732,2.614-3.595,4.311-4.974c0.689-0.559,1.414-1.059,2.159-1.523
			c1.642-1.504,3.392-2.889,5.234-4.111c3.39-2.246,7.229-4.162,11.377-4.233c0.281-0.004,0.381,0.327,0.215,0.519
			c-7.352,8.451-17.317,13.756-26.052,20.567C206.308,85.465,205.923,85.319,206.021,84.999z M198.48,107.965
			c3.212-9.979,11.812-17.555,20.203-23.689c2.868-2.937,5.901-5.689,9.415-7.856c0.219-0.135,0.533,0.089,0.445,0.343
			c-2.257,6.55-6.798,12.651-11.673,17.51c-2.914,2.904-6.137,5.456-9.351,8.018c-2.702,2.155-5.274,5.021-8.667,6.049
			C198.637,108.404,198.41,108.185,198.48,107.965z M249.796,109.67c-0.783,2.281-2.988,3.681-4.976,4.841
			c-2.348,1.367-4.694,2.726-7.113,3.963c-5.305,2.713-11.251,5.542-17.34,5.472c-0.178-0.002-0.37-0.197-0.292-0.383
			c1.568-3.803,6.386-5.547,9.793-7.239c2.121-1.052,4.309-1.892,6.526-2.65c-0.065-0.151-0.027-0.361,0.175-0.436
			c4.243-1.54,8.425-3.354,12.934-3.952C249.695,109.259,249.855,109.497,249.796,109.67z M248.487,102.683
			c-3.747,2.61-7.244,5.532-12.009,5.837c-0.188,0.014-0.356-0.204-0.292-0.383c0.801-2.254,2.964-3.997,4.827-5.363
			c0.997-0.731,2.059-1.468,3.175-2.11c2.877-2.398,6.052-4.434,9.692-5.079c0.201-0.036,0.37,0.083,0.383,0.292
			C254.462,98.926,250.635,101.187,248.487,102.683z M262.792,79.404c-0.986,1.637-2.604,2.763-4.125,3.861
			c-2.102,1.52-4.116,3.158-6.198,4.702c-4.119,3.058-8.377,5.913-12.633,8.775c-1.711,1.15-3.45,2.317-5.218,3.454
			c2.404-0.798,4.885-1.334,7.517-1.368c0.21-0.002,0.405,0.27,0.262,0.457c-4.422,5.809-11.332,9.098-17.262,13.085
			c-3.544,2.384-7.253,4.424-11.235,5.983c1.048-0.048,2.09,0.07,3.023,0.57c0.139,0.073,0.199,0.28,0.109,0.415
			c-2.973,4.402-7.516,7.436-12.258,9.669c-3.429,1.616-7.014,2.884-10.527,4.301c-1.598,0.645-5.239,2.404-6.705,0.502
			c-1.12-1.455-0.374-3.808,0.155-5.343c0.763-2.212,1.792-4.317,2.86-6.397c3.537-6.896,9.506-11.369,15.503-15.999
			c6.719-5.188,13.405-10.692,21.426-13.745c0.05-0.019,0.095-0.022,0.135-0.017c5.146-2.803,10.447-5.316,15.925-7.408
			c6.12-2.336,12.369-5.452,18.983-5.952C262.762,78.931,262.904,79.219,262.792,79.404z M291.413,48.898
			c-1.186,2.454-4.38,3.801-6.622,5.08c-3.78,2.155-7.584,4.3-11.473,6.254c-1.791,0.901-3.604,1.758-5.435,2.574
			c0.215,0.008,0.428,0.012,0.644,0.032c0.191,0.017,0.353,0.182,0.292,0.383c-0.808,2.726-3.994,4.172-6.076,5.789
			c-3.247,2.525-7.015,4.494-10.692,6.306c-4.13,2.032-8.257,4.069-12.367,6.146c-1.964,0.993-3.929,1.979-5.85,3.053
			c-1.489,0.835-2.98,1.644-4.646,2.057c-0.28,0.07-0.446-0.208-0.343-0.445c2.182-5.021,6.847-8.415,11.023-11.696
			c3.502-2.751,7.175-5.23,11.029-7.413c-4.093,1.712-8.134,3.548-12.211,5.299c-0.275,0.119-0.563-0.125-0.415-0.415
			c3.105-6.113,10.576-9.478,16.374-12.476c4.35-2.251,8.919-3.928,13.538-5.482c2.243-1.018,4.526-1.935,6.893-2.638
			c5.045-1.5,10.811-3.995,16.155-2.853C291.436,48.495,291.494,48.732,291.413,48.898z"/>
	</g>
</g>
</svg>
